<svg xmlns="http://www.w3.org/2000/svg" viewBox="0 0 393.41 165.98"><defs><style>.cls-1{fill:#3baad2;}.cls-1,.cls-2{fill-rule:evenodd;}.cls-2{fill:#fff;}</style></defs><g id="Слой_2" data-name="Слой 2"><g id="_1" data-name="1"><polygon class="cls-1" points="1.17 0 393.42 0 393.42 165.98 382.42 165.98 382.42 10.13 1.17 10.13 1.17 0"/><path class="cls-2" d="M1.18,2.37A1.19,1.19,0,1,0,0,1.18,1.19,1.19,0,0,0,1.18,2.37Z"/><path class="cls-2" d="M6.25,2.37A1.19,1.19,0,1,0,5.06,1.18,1.18,1.18,0,0,0,6.25,2.37Z"/><path class="cls-2" d="M11.31,2.37a1.19,1.19,0,1,0-1.18-1.19A1.18,1.18,0,0,0,11.31,2.37Z"/><path class="cls-2" d="M16.37,2.37a1.19,1.19,0,0,0,1.19-1.19,1.19,1.19,0,1,0-1.19,1.19Z"/><path class="cls-2" d="M21.43,2.37a1.19,1.19,0,1,0-1.18-1.19A1.19,1.19,0,0,0,21.43,2.37Z"/><path class="cls-2" d="M26.5,2.37a1.19,1.19,0,1,0-1.19-1.19A1.18,1.18,0,0,0,26.5,2.37Z"/><path class="cls-2" d="M31.56,2.37a1.19,1.19,0,1,0-1.18-1.19A1.18,1.18,0,0,0,31.56,2.37Z"/><path class="cls-2" d="M36.62,2.37a1.19,1.19,0,0,0,1.19-1.19,1.19,1.19,0,1,0-1.19,1.19Z"/><path class="cls-2" d="M41.69,2.37A1.19,1.19,0,1,0,40.5,1.18,1.18,1.18,0,0,0,41.69,2.37Z"/><path class="cls-2" d="M46.75,2.37a1.19,1.19,0,1,0-1.19-1.19A1.18,1.18,0,0,0,46.75,2.37Z"/><path class="cls-2" d="M51.81,2.37a1.19,1.19,0,1,0-1.18-1.19A1.18,1.18,0,0,0,51.81,2.37Z"/><path class="cls-2" d="M56.87,2.37a1.19,1.19,0,1,0-1.18-1.19A1.19,1.19,0,0,0,56.87,2.37Z"/><path class="cls-2" d="M61.94,2.37a1.19,1.19,0,1,0-1.19-1.19A1.18,1.18,0,0,0,61.94,2.37Z"/><path class="cls-2" d="M67,2.37a1.19,1.19,0,1,0-1.19-1.19A1.18,1.18,0,0,0,67,2.37Z"/><path class="cls-2" d="M72.06,2.37a1.19,1.19,0,1,0-1.18-1.19A1.18,1.18,0,0,0,72.06,2.37Z"/><path class="cls-2" d="M77.12,2.37a1.19,1.19,0,1,0-1.18-1.19A1.19,1.19,0,0,0,77.12,2.37Z"/><path class="cls-2" d="M82.19,2.37A1.19,1.19,0,1,0,81,1.18,1.18,1.18,0,0,0,82.19,2.37Z"/><path class="cls-2" d="M87.25,2.37a1.19,1.19,0,1,0-1.18-1.19A1.18,1.18,0,0,0,87.25,2.37Z"/><path class="cls-2" d="M92.31,2.37A1.19,1.19,0,0,0,93.5,1.18a1.19,1.19,0,1,0-1.19,1.19Z"/><path class="cls-2" d="M97.37,2.37a1.19,1.19,0,1,0-1.18-1.19A1.19,1.19,0,0,0,97.37,2.37Z"/><path class="cls-2" d="M102.44,2.37a1.19,1.19,0,1,0-1.19-1.19A1.18,1.18,0,0,0,102.44,2.37Z"/><path class="cls-2" d="M107.5,2.37a1.19,1.19,0,1,0-1.18-1.19A1.18,1.18,0,0,0,107.5,2.37Z"/><path class="cls-2" d="M112.56,2.37a1.19,1.19,0,0,0,1.19-1.19,1.19,1.19,0,1,0-1.19,1.19Z"/><path class="cls-2" d="M117.63,2.37a1.19,1.19,0,1,0-1.19-1.19A1.18,1.18,0,0,0,117.63,2.37Z"/><path class="cls-2" d="M122.69,2.37a1.19,1.19,0,1,0-1.19-1.19A1.18,1.18,0,0,0,122.69,2.37Z"/><path class="cls-2" d="M127.75,2.37a1.19,1.19,0,1,0-1.18-1.19A1.18,1.18,0,0,0,127.75,2.37Z"/><path class="cls-2" d="M132.81,2.37a1.19,1.19,0,1,0-1.18-1.19A1.19,1.19,0,0,0,132.81,2.37Z"/><path class="cls-2" d="M137.88,2.37a1.19,1.19,0,1,0-1.19-1.19A1.18,1.18,0,0,0,137.88,2.37Z"/><path class="cls-2" d="M142.94,2.37a1.19,1.19,0,1,0-1.19-1.19A1.18,1.18,0,0,0,142.94,2.37Z"/><path class="cls-2" d="M148,2.37a1.19,1.19,0,1,0-1.18-1.19A1.18,1.18,0,0,0,148,2.37Z"/><path class="cls-2" d="M153.06,2.37a1.19,1.19,0,1,0-1.18-1.19A1.19,1.19,0,0,0,153.06,2.37Z"/><path class="cls-2" d="M158.13,2.37a1.19,1.19,0,1,0-1.19-1.19A1.18,1.18,0,0,0,158.13,2.37Z"/><path class="cls-2" d="M163.19,2.37A1.19,1.19,0,1,0,162,1.18,1.18,1.18,0,0,0,163.19,2.37Z"/><path class="cls-2" d="M168.25,2.37a1.19,1.19,0,0,0,1.19-1.19,1.19,1.19,0,1,0-1.19,1.19Z"/><path class="cls-2" d="M173.31,2.37a1.19,1.19,0,1,0-1.18-1.19A1.19,1.19,0,0,0,173.31,2.37Z"/><path class="cls-2" d="M178.38,2.37a1.19,1.19,0,1,0-1.19-1.19A1.18,1.18,0,0,0,178.38,2.37Z"/><path class="cls-2" d="M183.44,2.37a1.19,1.19,0,1,0-1.18-1.19A1.18,1.18,0,0,0,183.44,2.37Z"/><path class="cls-2" d="M188.5,2.37a1.19,1.19,0,0,0,1.19-1.19,1.19,1.19,0,1,0-1.19,1.19Z"/><path class="cls-2" d="M193.57,2.37a1.19,1.19,0,1,0-1.19-1.19A1.18,1.18,0,0,0,193.57,2.37Z"/><path class="cls-2" d="M198.63,2.37a1.19,1.19,0,1,0-1.19-1.19A1.18,1.18,0,0,0,198.63,2.37Z"/><path class="cls-2" d="M203.69,2.37a1.19,1.19,0,1,0-1.18-1.19A1.18,1.18,0,0,0,203.69,2.37Z"/><path class="cls-2" d="M208.75,2.37a1.19,1.19,0,1,0-1.18-1.19A1.19,1.19,0,0,0,208.75,2.37Z"/><path class="cls-2" d="M213.82,2.37a1.19,1.19,0,1,0-1.19-1.19A1.18,1.18,0,0,0,213.82,2.37Z"/><path class="cls-2" d="M218.88,2.37a1.19,1.19,0,1,0-1.18-1.19A1.18,1.18,0,0,0,218.88,2.37Z"/><path class="cls-2" d="M223.94,2.37a1.19,1.19,0,1,0-1.18-1.19A1.18,1.18,0,0,0,223.94,2.37Z"/><path class="cls-2" d="M229,2.37a1.19,1.19,0,1,0-1.18-1.19A1.19,1.19,0,0,0,229,2.37Z"/><path class="cls-2" d="M234.07,2.37a1.19,1.19,0,1,0-1.19-1.19A1.18,1.18,0,0,0,234.07,2.37Z"/><path class="cls-2" d="M239.13,2.37A1.19,1.19,0,1,0,238,1.18,1.18,1.18,0,0,0,239.13,2.37Z"/><path class="cls-2" d="M244.19,2.37a1.19,1.19,0,0,0,1.19-1.19,1.19,1.19,0,1,0-1.19,1.19Z"/><path class="cls-2" d="M249.25,2.37a1.19,1.19,0,1,0-1.18-1.19A1.19,1.19,0,0,0,249.25,2.37Z"/><path class="cls-2" d="M254.32,2.37a1.19,1.19,0,1,0-1.19-1.19A1.18,1.18,0,0,0,254.32,2.37Z"/><path class="cls-2" d="M259.38,2.37a1.19,1.19,0,1,0-1.18-1.19A1.18,1.18,0,0,0,259.38,2.37Z"/><path class="cls-2" d="M264.44,2.37a1.19,1.19,0,0,0,1.19-1.19,1.19,1.19,0,1,0-1.19,1.19Z"/><path class="cls-2" d="M269.51,2.37a1.19,1.19,0,1,0-1.19-1.19A1.18,1.18,0,0,0,269.51,2.37Z"/><path class="cls-2" d="M274.57,2.37a1.19,1.19,0,1,0-1.19-1.19A1.18,1.18,0,0,0,274.57,2.37Z"/><path class="cls-2" d="M279.63,2.37a1.19,1.19,0,1,0-1.18-1.19A1.18,1.18,0,0,0,279.63,2.37Z"/><path class="cls-2" d="M284.69,2.37a1.19,1.19,0,1,0-1.18-1.19A1.19,1.19,0,0,0,284.69,2.37Z"/><path class="cls-2" d="M289.76,2.37a1.19,1.19,0,1,0-1.19-1.19A1.18,1.18,0,0,0,289.76,2.37Z"/><path class="cls-2" d="M294.82,2.37a1.19,1.19,0,1,0-1.18-1.19A1.18,1.18,0,0,0,294.82,2.37Z"/><path class="cls-2" d="M299.88,2.37a1.19,1.19,0,0,0,1.19-1.19,1.19,1.19,0,1,0-1.19,1.19Z"/><path class="cls-2" d="M304.94,2.37a1.19,1.19,0,1,0-1.18-1.19A1.19,1.19,0,0,0,304.94,2.37Z"/><path class="cls-2" d="M310,2.37a1.19,1.19,0,1,0-1.19-1.19A1.18,1.18,0,0,0,310,2.37Z"/><path class="cls-2" d="M315.07,2.37a1.19,1.19,0,1,0-1.18-1.19A1.18,1.18,0,0,0,315.07,2.37Z"/><path class="cls-2" d="M320.13,2.37a1.19,1.19,0,0,0,1.19-1.19,1.19,1.19,0,1,0-1.19,1.19Z"/><path class="cls-2" d="M325.19,2.37A1.19,1.19,0,1,0,324,1.18,1.19,1.19,0,0,0,325.19,2.37Z"/><path class="cls-2" d="M330.26,2.37a1.19,1.19,0,1,0-1.19-1.19A1.18,1.18,0,0,0,330.26,2.37Z"/><path class="cls-2" d="M335.32,2.37a1.19,1.19,0,1,0-1.18-1.19A1.18,1.18,0,0,0,335.32,2.37Z"/><path class="cls-2" d="M340.38,2.37a1.19,1.19,0,0,0,1.19-1.19,1.19,1.19,0,1,0-1.19,1.19Z"/><path class="cls-2" d="M345.45,2.37a1.19,1.19,0,1,0-1.19-1.19A1.18,1.18,0,0,0,345.45,2.37Z"/><path class="cls-2" d="M350.51,2.37a1.19,1.19,0,1,0-1.19-1.19A1.18,1.18,0,0,0,350.51,2.37Z"/><path class="cls-2" d="M355.57,2.37a1.19,1.19,0,1,0-1.18-1.19A1.18,1.18,0,0,0,355.57,2.37Z"/><path class="cls-2" d="M360.63,2.37a1.19,1.19,0,1,0-1.18-1.19A1.19,1.19,0,0,0,360.63,2.37Z"/><path class="cls-2" d="M365.7,2.37a1.19,1.19,0,1,0-1.19-1.19A1.18,1.18,0,0,0,365.7,2.37Z"/><path class="cls-2" d="M370.76,2.37a1.19,1.19,0,1,0-1.18-1.19A1.18,1.18,0,0,0,370.76,2.37Z"/><path class="cls-2" d="M375.82,2.37A1.19,1.19,0,0,0,377,1.18a1.19,1.19,0,1,0-1.19,1.19Z"/><path class="cls-2" d="M380.88,2.37a1.19,1.19,0,1,0-1.18-1.19A1.19,1.19,0,0,0,380.88,2.37Z"/><path class="cls-2" d="M386,2.37a1.19,1.19,0,1,0-1.19-1.19A1.18,1.18,0,0,0,386,2.37Z"/><path class="cls-2" d="M391,2.37a1.19,1.19,0,1,0-1.18-1.19A1.18,1.18,0,0,0,391,2.37Z"/><path class="cls-2" d="M1.18,6.16A1.18,1.18,0,1,0,0,5,1.18,1.18,0,0,0,1.18,6.16Z"/><path class="cls-2" d="M6.25,6.16A1.18,1.18,0,1,0,5.06,5,1.18,1.18,0,0,0,6.25,6.16Z"/><path class="cls-2" d="M11.31,6.16A1.18,1.18,0,1,0,10.13,5,1.18,1.18,0,0,0,11.31,6.16Z"/><path class="cls-2" d="M16.37,6.16A1.18,1.18,0,1,0,15.19,5,1.19,1.19,0,0,0,16.37,6.16Z"/><path class="cls-2" d="M21.43,6.16A1.18,1.18,0,1,0,20.25,5,1.18,1.18,0,0,0,21.43,6.16Z"/><path class="cls-2" d="M26.5,6.16A1.18,1.18,0,1,0,25.31,5,1.18,1.18,0,0,0,26.5,6.16Z"/><path class="cls-2" d="M31.56,6.16A1.18,1.18,0,1,0,30.38,5,1.18,1.18,0,0,0,31.56,6.16Z"/><path class="cls-2" d="M36.62,6.16A1.18,1.18,0,1,0,35.44,5,1.19,1.19,0,0,0,36.62,6.16Z"/><path class="cls-2" d="M41.69,6.16A1.18,1.18,0,1,0,40.5,5,1.18,1.18,0,0,0,41.69,6.16Z"/><path class="cls-2" d="M46.75,6.16A1.18,1.18,0,1,0,45.56,5,1.18,1.18,0,0,0,46.75,6.16Z"/><path class="cls-2" d="M51.81,6.16A1.18,1.18,0,1,0,50.63,5,1.18,1.18,0,0,0,51.81,6.16Z"/><path class="cls-2" d="M56.87,6.16A1.18,1.18,0,1,0,55.69,5,1.18,1.18,0,0,0,56.87,6.16Z"/><path class="cls-2" d="M61.94,6.16A1.18,1.18,0,1,0,60.75,5,1.18,1.18,0,0,0,61.94,6.16Z"/><path class="cls-2" d="M67,6.16A1.18,1.18,0,1,0,65.81,5,1.18,1.18,0,0,0,67,6.16Z"/><path class="cls-2" d="M72.06,6.16A1.18,1.18,0,1,0,70.88,5,1.18,1.18,0,0,0,72.06,6.16Z"/><path class="cls-2" d="M77.12,6.16A1.18,1.18,0,1,0,75.94,5,1.18,1.18,0,0,0,77.12,6.16Z"/><path class="cls-2" d="M82.19,6.16A1.18,1.18,0,1,0,81,5,1.18,1.18,0,0,0,82.19,6.16Z"/><path class="cls-2" d="M87.25,6.16A1.18,1.18,0,1,0,86.07,5,1.18,1.18,0,0,0,87.25,6.16Z"/><path class="cls-2" d="M92.31,6.16A1.18,1.18,0,1,0,91.13,5,1.19,1.19,0,0,0,92.31,6.16Z"/><path class="cls-2" d="M97.37,6.16A1.18,1.18,0,1,0,96.19,5,1.18,1.18,0,0,0,97.37,6.16Z"/><path class="cls-2" d="M102.44,6.16A1.18,1.18,0,1,0,101.25,5,1.18,1.18,0,0,0,102.44,6.16Z"/><path class="cls-2" d="M107.5,6.16A1.18,1.18,0,1,0,106.32,5,1.18,1.18,0,0,0,107.5,6.16Z"/><path class="cls-2" d="M112.56,6.16A1.18,1.18,0,1,0,111.38,5,1.19,1.19,0,0,0,112.56,6.16Z"/><path class="cls-2" d="M117.63,6.16A1.18,1.18,0,1,0,116.44,5,1.18,1.18,0,0,0,117.63,6.16Z"/><path class="cls-2" d="M122.69,6.16A1.18,1.18,0,1,0,121.5,5,1.18,1.18,0,0,0,122.69,6.16Z"/><path class="cls-2" d="M127.75,6.16A1.18,1.18,0,1,0,126.57,5,1.18,1.18,0,0,0,127.75,6.16Z"/><path class="cls-2" d="M132.81,6.16A1.18,1.18,0,1,0,131.63,5,1.18,1.18,0,0,0,132.81,6.16Z"/><path class="cls-2" d="M137.88,6.16A1.18,1.18,0,1,0,136.69,5,1.18,1.18,0,0,0,137.88,6.16Z"/><path class="cls-2" d="M142.94,6.16A1.18,1.18,0,1,0,141.75,5,1.18,1.18,0,0,0,142.94,6.16Z"/><path class="cls-2" d="M148,6.16A1.18,1.18,0,1,0,146.82,5,1.18,1.18,0,0,0,148,6.16Z"/><path class="cls-2" d="M153.06,6.16A1.18,1.18,0,1,0,151.88,5,1.18,1.18,0,0,0,153.06,6.16Z"/><path class="cls-2" d="M158.13,6.16A1.18,1.18,0,1,0,156.94,5,1.18,1.18,0,0,0,158.13,6.16Z"/><path class="cls-2" d="M163.19,6.16A1.18,1.18,0,1,0,162,5,1.18,1.18,0,0,0,163.19,6.16Z"/><path class="cls-2" d="M168.25,6.16A1.18,1.18,0,1,0,167.07,5,1.19,1.19,0,0,0,168.25,6.16Z"/><path class="cls-2" d="M173.31,6.16A1.18,1.18,0,1,0,172.13,5,1.18,1.18,0,0,0,173.31,6.16Z"/><path class="cls-2" d="M178.38,6.16A1.18,1.18,0,1,0,177.19,5,1.18,1.18,0,0,0,178.38,6.16Z"/><path class="cls-2" d="M183.44,6.16A1.18,1.18,0,1,0,182.26,5,1.18,1.18,0,0,0,183.44,6.16Z"/><path class="cls-2" d="M188.5,6.16A1.18,1.18,0,1,0,187.32,5,1.19,1.19,0,0,0,188.5,6.16Z"/><path class="cls-2" d="M193.57,6.16A1.18,1.18,0,1,0,192.38,5,1.18,1.18,0,0,0,193.57,6.16Z"/><path class="cls-2" d="M198.63,6.16A1.18,1.18,0,1,0,197.44,5,1.18,1.18,0,0,0,198.63,6.16Z"/><path class="cls-2" d="M203.69,6.16A1.18,1.18,0,1,0,202.51,5,1.18,1.18,0,0,0,203.69,6.16Z"/><path class="cls-2" d="M208.75,6.16A1.18,1.18,0,1,0,207.57,5,1.18,1.18,0,0,0,208.75,6.16Z"/><path class="cls-2" d="M213.82,6.16A1.18,1.18,0,1,0,212.63,5,1.18,1.18,0,0,0,213.82,6.16Z"/><path class="cls-2" d="M218.88,6.16A1.18,1.18,0,1,0,217.7,5,1.18,1.18,0,0,0,218.88,6.16Z"/><path class="cls-2" d="M223.94,6.16A1.18,1.18,0,1,0,222.76,5,1.18,1.18,0,0,0,223.94,6.16Z"/><path class="cls-2" d="M229,6.16A1.18,1.18,0,1,0,227.82,5,1.18,1.18,0,0,0,229,6.16Z"/><path class="cls-2" d="M234.07,6.16A1.18,1.18,0,1,0,232.88,5,1.18,1.18,0,0,0,234.07,6.16Z"/><path class="cls-2" d="M239.13,6.16A1.18,1.18,0,1,0,238,5,1.18,1.18,0,0,0,239.13,6.16Z"/><path class="cls-2" d="M244.19,6.16A1.18,1.18,0,1,0,243,5,1.19,1.19,0,0,0,244.19,6.16Z"/><path class="cls-2" d="M249.25,6.16A1.18,1.18,0,1,0,248.07,5,1.18,1.18,0,0,0,249.25,6.16Z"/><path class="cls-2" d="M254.32,6.16A1.18,1.18,0,1,0,253.13,5,1.18,1.18,0,0,0,254.32,6.16Z"/><path class="cls-2" d="M259.38,6.16A1.18,1.18,0,1,0,258.2,5,1.18,1.18,0,0,0,259.38,6.16Z"/><path class="cls-2" d="M264.44,6.16A1.18,1.18,0,1,0,263.26,5,1.19,1.19,0,0,0,264.44,6.16Z"/><path class="cls-2" d="M269.51,6.16A1.18,1.18,0,1,0,268.32,5,1.18,1.18,0,0,0,269.51,6.16Z"/><path class="cls-2" d="M274.57,6.16A1.18,1.18,0,1,0,273.38,5,1.18,1.18,0,0,0,274.57,6.16Z"/><path class="cls-2" d="M279.63,6.16A1.18,1.18,0,1,0,278.45,5,1.18,1.18,0,0,0,279.63,6.16Z"/><path class="cls-2" d="M284.69,6.16A1.18,1.18,0,1,0,283.51,5,1.18,1.18,0,0,0,284.69,6.16Z"/><path class="cls-2" d="M289.76,6.16A1.18,1.18,0,1,0,288.57,5,1.18,1.18,0,0,0,289.76,6.16Z"/><path class="cls-2" d="M294.82,6.16A1.18,1.18,0,1,0,293.64,5,1.18,1.18,0,0,0,294.82,6.16Z"/><path class="cls-2" d="M299.88,6.16A1.18,1.18,0,1,0,298.7,5,1.19,1.19,0,0,0,299.88,6.16Z"/><path class="cls-2" d="M304.94,6.16A1.18,1.18,0,1,0,303.76,5,1.18,1.18,0,0,0,304.94,6.16Z"/><path class="cls-2" d="M310,6.16A1.18,1.18,0,1,0,308.82,5,1.18,1.18,0,0,0,310,6.16Z"/><path class="cls-2" d="M315.07,6.16A1.18,1.18,0,1,0,313.89,5,1.18,1.18,0,0,0,315.07,6.16Z"/><path class="cls-2" d="M320.13,6.16A1.18,1.18,0,1,0,319,5,1.19,1.19,0,0,0,320.13,6.16Z"/><path class="cls-2" d="M325.19,6.16A1.18,1.18,0,1,0,324,5,1.18,1.18,0,0,0,325.19,6.16Z"/><path class="cls-2" d="M330.26,6.16A1.18,1.18,0,1,0,329.07,5,1.18,1.18,0,0,0,330.26,6.16Z"/><path class="cls-2" d="M335.32,6.16A1.18,1.18,0,1,0,334.14,5,1.18,1.18,0,0,0,335.32,6.16Z"/><path class="cls-2" d="M340.38,6.16A1.18,1.18,0,1,0,339.2,5,1.19,1.19,0,0,0,340.38,6.16Z"/><path class="cls-2" d="M345.45,6.16A1.18,1.18,0,1,0,344.26,5,1.18,1.18,0,0,0,345.45,6.16Z"/><path class="cls-2" d="M350.51,6.16A1.18,1.18,0,1,0,349.32,5,1.18,1.18,0,0,0,350.51,6.16Z"/><path class="cls-2" d="M355.57,6.16A1.18,1.18,0,1,0,354.39,5,1.18,1.18,0,0,0,355.57,6.16Z"/><path class="cls-2" d="M360.63,6.16A1.18,1.18,0,1,0,359.45,5,1.18,1.18,0,0,0,360.63,6.16Z"/><path class="cls-2" d="M365.7,6.16A1.18,1.18,0,1,0,364.51,5,1.18,1.18,0,0,0,365.7,6.16Z"/><path class="cls-2" d="M370.76,6.16A1.18,1.18,0,1,0,369.58,5,1.18,1.18,0,0,0,370.76,6.16Z"/><path class="cls-2" d="M375.82,6.16A1.18,1.18,0,1,0,374.64,5,1.19,1.19,0,0,0,375.82,6.16Z"/><path class="cls-2" d="M380.88,6.16A1.18,1.18,0,1,0,379.7,5,1.18,1.18,0,0,0,380.88,6.16Z"/><path class="cls-2" d="M386,6.16A1.18,1.18,0,1,0,384.76,5,1.18,1.18,0,0,0,386,6.16Z"/><path class="cls-2" d="M391,6.16A1.18,1.18,0,1,0,389.83,5,1.18,1.18,0,0,0,391,6.16Z"/><path class="cls-2" d="M1.18,10A1.19,1.19,0,1,0,0,8.78,1.18,1.18,0,0,0,1.18,10Z"/><path class="cls-2" d="M6.25,10A1.19,1.19,0,1,0,5.06,8.78,1.18,1.18,0,0,0,6.25,10Z"/><path class="cls-2" d="M11.31,10a1.19,1.19,0,1,0-1.18-1.18A1.18,1.18,0,0,0,11.31,10Z"/><path class="cls-2" d="M16.37,10a1.19,1.19,0,1,0-1.18-1.18A1.19,1.19,0,0,0,16.37,10Z"/><path class="cls-2" d="M21.43,10a1.19,1.19,0,1,0-1.18-1.18A1.18,1.18,0,0,0,21.43,10Z"/><path class="cls-2" d="M26.5,10a1.19,1.19,0,0,0,0-2.37,1.19,1.19,0,1,0,0,2.37Z"/><path class="cls-2" d="M31.56,10a1.19,1.19,0,1,0-1.18-1.18A1.18,1.18,0,0,0,31.56,10Z"/><path class="cls-2" d="M36.62,10a1.19,1.19,0,1,0-1.18-1.18A1.19,1.19,0,0,0,36.62,10Z"/><path class="cls-2" d="M41.69,10A1.19,1.19,0,1,0,40.5,8.78,1.18,1.18,0,0,0,41.69,10Z"/><path class="cls-2" d="M46.75,10a1.19,1.19,0,0,0,0-2.37,1.19,1.19,0,1,0,0,2.37Z"/><path class="cls-2" d="M51.81,10a1.19,1.19,0,1,0-1.18-1.18A1.18,1.18,0,0,0,51.81,10Z"/><path class="cls-2" d="M56.87,10a1.19,1.19,0,1,0-1.18-1.18A1.18,1.18,0,0,0,56.87,10Z"/><path class="cls-2" d="M61.94,10a1.19,1.19,0,1,0-1.19-1.18A1.18,1.18,0,0,0,61.94,10Z"/><path class="cls-2" d="M67,10a1.19,1.19,0,0,0,0-2.37A1.19,1.19,0,1,0,67,10Z"/><path class="cls-2" d="M72.06,10a1.19,1.19,0,1,0-1.18-1.18A1.18,1.18,0,0,0,72.06,10Z"/><path class="cls-2" d="M77.12,10a1.19,1.19,0,1,0-1.18-1.18A1.18,1.18,0,0,0,77.12,10Z"/><path class="cls-2" d="M82.19,10A1.19,1.19,0,1,0,81,8.78,1.18,1.18,0,0,0,82.19,10Z"/><path class="cls-2" d="M87.25,10a1.19,1.19,0,1,0-1.18-1.18A1.18,1.18,0,0,0,87.25,10Z"/><path class="cls-2" d="M92.31,10a1.19,1.19,0,1,0-1.18-1.18A1.19,1.19,0,0,0,92.31,10Z"/><path class="cls-2" d="M97.37,10a1.19,1.19,0,1,0-1.18-1.18A1.18,1.18,0,0,0,97.37,10Z"/><path class="cls-2" d="M102.44,10a1.19,1.19,0,0,0,0-2.37,1.19,1.19,0,1,0,0,2.37Z"/><path class="cls-2" d="M107.5,10a1.19,1.19,0,1,0-1.18-1.18A1.18,1.18,0,0,0,107.5,10Z"/><path class="cls-2" d="M112.56,10a1.19,1.19,0,1,0-1.18-1.18A1.19,1.19,0,0,0,112.56,10Z"/><path class="cls-2" d="M117.63,10a1.19,1.19,0,1,0-1.19-1.18A1.18,1.18,0,0,0,117.63,10Z"/><path class="cls-2" d="M122.69,10a1.19,1.19,0,0,0,0-2.37,1.19,1.19,0,1,0,0,2.37Z"/><path class="cls-2" d="M127.75,10a1.19,1.19,0,1,0-1.18-1.18A1.18,1.18,0,0,0,127.75,10Z"/><path class="cls-2" d="M132.81,10a1.19,1.19,0,1,0-1.18-1.18A1.18,1.18,0,0,0,132.81,10Z"/><path class="cls-2" d="M137.88,10a1.19,1.19,0,1,0-1.19-1.18A1.18,1.18,0,0,0,137.88,10Z"/><path class="cls-2" d="M142.94,10a1.19,1.19,0,0,0,0-2.37,1.19,1.19,0,1,0,0,2.37Z"/><path class="cls-2" d="M148,10a1.19,1.19,0,1,0-1.18-1.18A1.18,1.18,0,0,0,148,10Z"/><path class="cls-2" d="M153.06,10a1.19,1.19,0,1,0-1.18-1.18A1.18,1.18,0,0,0,153.06,10Z"/><path class="cls-2" d="M158.13,10a1.19,1.19,0,1,0-1.19-1.18A1.18,1.18,0,0,0,158.13,10Z"/><path class="cls-2" d="M163.19,10A1.19,1.19,0,1,0,162,8.78,1.18,1.18,0,0,0,163.19,10Z"/><path class="cls-2" d="M168.25,10a1.19,1.19,0,1,0-1.18-1.18A1.19,1.19,0,0,0,168.25,10Z"/><path class="cls-2" d="M173.31,10a1.19,1.19,0,1,0-1.18-1.18A1.18,1.18,0,0,0,173.31,10Z"/><path class="cls-2" d="M178.38,10a1.19,1.19,0,0,0,0-2.37,1.19,1.19,0,1,0,0,2.37Z"/><path class="cls-2" d="M183.44,10a1.19,1.19,0,1,0-1.18-1.18A1.18,1.18,0,0,0,183.44,10Z"/><path class="cls-2" d="M188.5,10a1.19,1.19,0,1,0-1.18-1.18A1.19,1.19,0,0,0,188.5,10Z"/><path class="cls-2" d="M193.57,10a1.19,1.19,0,1,0-1.19-1.18A1.18,1.18,0,0,0,193.57,10Z"/><path class="cls-2" d="M198.63,10a1.19,1.19,0,0,0,0-2.37,1.19,1.19,0,1,0,0,2.37Z"/><path class="cls-2" d="M203.69,10a1.19,1.19,0,1,0-1.18-1.18A1.18,1.18,0,0,0,203.69,10Z"/><path class="cls-2" d="M208.75,10a1.19,1.19,0,1,0-1.18-1.18A1.18,1.18,0,0,0,208.75,10Z"/><path class="cls-2" d="M213.82,10a1.19,1.19,0,1,0-1.19-1.18A1.18,1.18,0,0,0,213.82,10Z"/><path class="cls-2" d="M218.88,10a1.19,1.19,0,1,0-1.18-1.18A1.18,1.18,0,0,0,218.88,10Z"/><path class="cls-2" d="M223.94,10a1.19,1.19,0,1,0-1.18-1.18A1.18,1.18,0,0,0,223.94,10Z"/><path class="cls-2" d="M229,10a1.19,1.19,0,1,0-1.18-1.18A1.18,1.18,0,0,0,229,10Z"/><path class="cls-2" d="M234.07,10a1.19,1.19,0,1,0-1.19-1.18A1.18,1.18,0,0,0,234.07,10Z"/><path class="cls-2" d="M239.13,10A1.19,1.19,0,1,0,238,8.78,1.18,1.18,0,0,0,239.13,10Z"/><path class="cls-2" d="M244.19,10A1.19,1.19,0,1,0,243,8.78,1.19,1.19,0,0,0,244.19,10Z"/><path class="cls-2" d="M249.25,10a1.19,1.19,0,1,0-1.18-1.18A1.18,1.18,0,0,0,249.25,10Z"/><path class="cls-2" d="M254.32,10a1.19,1.19,0,0,0,0-2.37,1.19,1.19,0,1,0,0,2.37Z"/><path class="cls-2" d="M259.38,10a1.19,1.19,0,1,0-1.18-1.18A1.18,1.18,0,0,0,259.38,10Z"/><path class="cls-2" d="M264.44,10a1.19,1.19,0,1,0-1.18-1.18A1.19,1.19,0,0,0,264.44,10Z"/><path class="cls-2" d="M269.51,10a1.19,1.19,0,1,0-1.19-1.18A1.18,1.18,0,0,0,269.51,10Z"/><path class="cls-2" d="M274.57,10a1.19,1.19,0,0,0,0-2.37,1.19,1.19,0,1,0,0,2.37Z"/><path class="cls-2" d="M279.63,10a1.19,1.19,0,1,0-1.18-1.18A1.18,1.18,0,0,0,279.63,10Z"/><path class="cls-2" d="M284.69,10a1.19,1.19,0,1,0-1.18-1.18A1.18,1.18,0,0,0,284.69,10Z"/><path class="cls-2" d="M289.76,10a1.19,1.19,0,1,0-1.19-1.18A1.18,1.18,0,0,0,289.76,10Z"/><path class="cls-2" d="M294.82,10a1.19,1.19,0,1,0-1.18-1.18A1.18,1.18,0,0,0,294.82,10Z"/><path class="cls-2" d="M299.88,10a1.19,1.19,0,1,0-1.18-1.18A1.19,1.19,0,0,0,299.88,10Z"/><path class="cls-2" d="M304.94,10a1.19,1.19,0,1,0-1.18-1.18A1.18,1.18,0,0,0,304.94,10Z"/><path class="cls-2" d="M310,10a1.19,1.19,0,1,0-1.19-1.18A1.18,1.18,0,0,0,310,10Z"/><path class="cls-2" d="M315.07,10a1.19,1.19,0,1,0-1.18-1.18A1.18,1.18,0,0,0,315.07,10Z"/><path class="cls-2" d="M320.13,10A1.19,1.19,0,1,0,319,8.78,1.19,1.19,0,0,0,320.13,10Z"/><path class="cls-2" d="M325.19,10A1.19,1.19,0,1,0,324,8.78,1.18,1.18,0,0,0,325.19,10Z"/><path class="cls-2" d="M330.26,10a1.19,1.19,0,0,0,0-2.37,1.19,1.19,0,1,0,0,2.37Z"/><path class="cls-2" d="M335.32,10a1.19,1.19,0,1,0-1.18-1.18A1.18,1.18,0,0,0,335.32,10Z"/><path class="cls-2" d="M340.38,10a1.19,1.19,0,1,0-1.18-1.18A1.19,1.19,0,0,0,340.38,10Z"/><path class="cls-2" d="M345.45,10a1.19,1.19,0,1,0-1.19-1.18A1.18,1.18,0,0,0,345.45,10Z"/><path class="cls-2" d="M350.51,10a1.19,1.19,0,0,0,0-2.37,1.19,1.19,0,1,0,0,2.37Z"/><path class="cls-2" d="M355.57,10a1.19,1.19,0,1,0-1.18-1.18A1.18,1.18,0,0,0,355.57,10Z"/><path class="cls-2" d="M360.63,10a1.19,1.19,0,1,0-1.18-1.18A1.18,1.18,0,0,0,360.63,10Z"/><path class="cls-2" d="M365.7,10a1.19,1.19,0,1,0-1.19-1.18A1.18,1.18,0,0,0,365.7,10Z"/><path class="cls-2" d="M370.76,10a1.19,1.19,0,1,0-1.18-1.18A1.18,1.18,0,0,0,370.76,10Z"/><path class="cls-2" d="M375.82,10a1.19,1.19,0,1,0-1.18-1.18A1.19,1.19,0,0,0,375.82,10Z"/><path class="cls-2" d="M380.88,10a1.19,1.19,0,1,0-1.18-1.18A1.18,1.18,0,0,0,380.88,10Z"/><path class="cls-2" d="M391,10a1.19,1.19,0,1,0-1.18-1.18A1.18,1.18,0,0,0,391,10Z"/><path class="cls-2" d="M386,14.23A1.19,1.19,0,1,0,384.76,13,1.19,1.19,0,0,0,386,14.23Z"/><path class="cls-2" d="M391,14.23A1.19,1.19,0,1,0,389.83,13,1.19,1.19,0,0,0,391,14.23Z"/><path class="cls-2" d="M386,18a1.18,1.18,0,1,0-1.19-1.18A1.18,1.18,0,0,0,386,18Z"/><path class="cls-2" d="M391,18a1.18,1.18,0,1,0-1.18-1.18A1.18,1.18,0,0,0,391,18Z"/><path class="cls-2" d="M386,21.82a1.19,1.19,0,1,0-1.19-1.18A1.18,1.18,0,0,0,386,21.82Z"/><path class="cls-2" d="M391,21.82a1.19,1.19,0,1,0-1.18-1.18A1.18,1.18,0,0,0,391,21.82Z"/><path class="cls-2" d="M386,26.08a1.18,1.18,0,1,0-1.19-1.18A1.18,1.18,0,0,0,386,26.08Z"/><path class="cls-2" d="M391,26.08a1.18,1.18,0,1,0-1.18-1.18A1.18,1.18,0,0,0,391,26.08Z"/><path class="cls-2" d="M386,29.88a1.19,1.19,0,1,0-1.19-1.18A1.18,1.18,0,0,0,386,29.88Z"/><path class="cls-2" d="M391,29.88a1.19,1.19,0,1,0-1.18-1.18A1.18,1.18,0,0,0,391,29.88Z"/><path class="cls-2" d="M386,33.68a1.19,1.19,0,1,0-1.19-1.19A1.18,1.18,0,0,0,386,33.68Z"/><path class="cls-2" d="M391,33.68a1.19,1.19,0,1,0-1.18-1.19A1.18,1.18,0,0,0,391,33.68Z"/><path class="cls-2" d="M386,37.94a1.18,1.18,0,1,0-1.19-1.18A1.18,1.18,0,0,0,386,37.94Z"/><path class="cls-2" d="M391,37.94a1.18,1.18,0,1,0-1.18-1.18A1.18,1.18,0,0,0,391,37.94Z"/><path class="cls-2" d="M386,41.74a1.19,1.19,0,1,0-1.19-1.18A1.18,1.18,0,0,0,386,41.74Z"/><path class="cls-2" d="M391,41.74a1.19,1.19,0,1,0-1.18-1.18A1.18,1.18,0,0,0,391,41.74Z"/><path class="cls-2" d="M386,45.54a1.19,1.19,0,1,0-1.19-1.19A1.18,1.18,0,0,0,386,45.54Z"/><path class="cls-2" d="M391,45.54a1.19,1.19,0,1,0-1.18-1.19A1.18,1.18,0,0,0,391,45.54Z"/><path class="cls-2" d="M386,49.8a1.19,1.19,0,1,0-1.19-1.18A1.18,1.18,0,0,0,386,49.8Z"/><path class="cls-2" d="M391,49.8a1.19,1.19,0,1,0-1.18-1.18A1.18,1.18,0,0,0,391,49.8Z"/><path class="cls-2" d="M386,53.6a1.19,1.19,0,1,0-1.19-1.18A1.18,1.18,0,0,0,386,53.6Z"/><path class="cls-2" d="M391,53.6a1.19,1.19,0,1,0-1.18-1.18A1.18,1.18,0,0,0,391,53.6Z"/><path class="cls-2" d="M386,57.4a1.19,1.19,0,1,0-1.19-1.19A1.19,1.19,0,0,0,386,57.4Z"/><path class="cls-2" d="M391,57.4a1.19,1.19,0,1,0-1.18-1.19A1.19,1.19,0,0,0,391,57.4Z"/><path class="cls-2" d="M386,61.66a1.19,1.19,0,1,0-1.19-1.18A1.18,1.18,0,0,0,386,61.66Z"/><path class="cls-2" d="M391,61.66a1.19,1.19,0,1,0-1.18-1.18A1.18,1.18,0,0,0,391,61.66Z"/><path class="cls-2" d="M386,65.46a1.19,1.19,0,1,0-1.19-1.19A1.18,1.18,0,0,0,386,65.46Z"/><path class="cls-2" d="M391,65.46a1.19,1.19,0,1,0-1.18-1.19A1.18,1.18,0,0,0,391,65.46Z"/><path class="cls-2" d="M386,69.25a1.18,1.18,0,1,0-1.19-1.18A1.18,1.18,0,0,0,386,69.25Z"/><path class="cls-2" d="M391,69.25a1.18,1.18,0,1,0-1.18-1.18A1.18,1.18,0,0,0,391,69.25Z"/><path class="cls-2" d="M386,73.52a1.19,1.19,0,1,0-1.19-1.18A1.18,1.18,0,0,0,386,73.52Z"/><path class="cls-2" d="M391,73.52a1.19,1.19,0,1,0-1.18-1.18A1.18,1.18,0,0,0,391,73.52Z"/><path class="cls-2" d="M386,77.32a1.19,1.19,0,1,0-1.19-1.19A1.19,1.19,0,0,0,386,77.32Z"/><path class="cls-2" d="M391,77.32a1.19,1.19,0,1,0-1.18-1.19A1.19,1.19,0,0,0,391,77.32Z"/><path class="cls-2" d="M386,81.11a1.18,1.18,0,1,0-1.19-1.18A1.18,1.18,0,0,0,386,81.11Z"/><path class="cls-2" d="M391,81.11a1.18,1.18,0,1,0-1.18-1.18A1.18,1.18,0,0,0,391,81.11Z"/><path class="cls-2" d="M386,85.38a1.19,1.19,0,1,0-1.19-1.19A1.18,1.18,0,0,0,386,85.38Z"/><path class="cls-2" d="M391,85.38a1.19,1.19,0,1,0-1.18-1.19A1.18,1.18,0,0,0,391,85.38Z"/><path class="cls-2" d="M386,89.18A1.19,1.19,0,1,0,384.76,88,1.19,1.19,0,0,0,386,89.18Z"/><path class="cls-2" d="M391,89.18A1.19,1.19,0,1,0,389.83,88,1.19,1.19,0,0,0,391,89.18Z"/><path class="cls-2" d="M386,93a1.19,1.19,0,1,0-1.19-1.18A1.18,1.18,0,0,0,386,93Z"/><path class="cls-2" d="M391,93a1.19,1.19,0,1,0-1.18-1.18A1.18,1.18,0,0,0,391,93Z"/><path class="cls-2" d="M386,97.24a1.19,1.19,0,1,0-1.19-1.19A1.18,1.18,0,0,0,386,97.24Z"/><path class="cls-2" d="M391,97.24a1.19,1.19,0,1,0-1.18-1.19A1.18,1.18,0,0,0,391,97.24Z"/><path class="cls-2" d="M386,101a1.18,1.18,0,1,0-1.19-1.18A1.18,1.18,0,0,0,386,101Z"/><path class="cls-2" d="M391,101a1.18,1.18,0,1,0-1.18-1.18A1.18,1.18,0,0,0,391,101Z"/><path class="cls-2" d="M386,104.83a1.19,1.19,0,1,0-1.19-1.18A1.18,1.18,0,0,0,386,104.83Z"/><path class="cls-2" d="M391,104.83a1.19,1.19,0,1,0-1.18-1.18A1.18,1.18,0,0,0,391,104.83Z"/><path class="cls-2" d="M386,109.1a1.19,1.19,0,1,0-1.19-1.19A1.19,1.19,0,0,0,386,109.1Z"/><path class="cls-2" d="M391,109.1a1.19,1.19,0,1,0-1.18-1.19A1.19,1.19,0,0,0,391,109.1Z"/><path class="cls-2" d="M386,112.89a1.18,1.18,0,1,0-1.19-1.18A1.18,1.18,0,0,0,386,112.89Z"/><path class="cls-2" d="M391,112.89a1.18,1.18,0,1,0-1.18-1.18A1.18,1.18,0,0,0,391,112.89Z"/><path class="cls-2" d="M386,116.69a1.19,1.19,0,1,0-1.19-1.18A1.18,1.18,0,0,0,386,116.69Z"/><path class="cls-2" d="M391,116.69a1.19,1.19,0,1,0-1.18-1.18A1.18,1.18,0,0,0,391,116.69Z"/><path class="cls-2" d="M386,121a1.18,1.18,0,1,0-1.19-1.18A1.18,1.18,0,0,0,386,121Z"/><path class="cls-2" d="M391,121a1.18,1.18,0,1,0-1.18-1.18A1.18,1.18,0,0,0,391,121Z"/><path class="cls-2" d="M386,124.75a1.19,1.19,0,1,0-1.19-1.18A1.18,1.18,0,0,0,386,124.75Z"/><path class="cls-2" d="M391,124.75a1.19,1.19,0,1,0-1.18-1.18A1.18,1.18,0,0,0,391,124.75Z"/><path class="cls-2" d="M386,128.55a1.19,1.19,0,1,0-1.19-1.19A1.18,1.18,0,0,0,386,128.55Z"/><path class="cls-2" d="M391,128.55a1.19,1.19,0,1,0-1.18-1.19A1.18,1.18,0,0,0,391,128.55Z"/><path class="cls-2" d="M386,132.81a1.18,1.18,0,1,0-1.19-1.18A1.18,1.18,0,0,0,386,132.81Z"/><path class="cls-2" d="M391,132.81a1.18,1.18,0,1,0-1.18-1.18A1.18,1.18,0,0,0,391,132.81Z"/><path class="cls-2" d="M386,136.61a1.19,1.19,0,1,0-1.19-1.18A1.18,1.18,0,0,0,386,136.61Z"/><path class="cls-2" d="M391,136.61a1.19,1.19,0,1,0-1.18-1.18A1.18,1.18,0,0,0,391,136.61Z"/><path class="cls-2" d="M386,140.41a1.19,1.19,0,1,0-1.19-1.19A1.18,1.18,0,0,0,386,140.41Z"/><path class="cls-2" d="M391,140.41a1.19,1.19,0,1,0-1.18-1.19A1.18,1.18,0,0,0,391,140.41Z"/><path class="cls-2" d="M386,144.67a1.19,1.19,0,1,0-1.19-1.18A1.18,1.18,0,0,0,386,144.67Z"/><path class="cls-2" d="M391,144.67a1.19,1.19,0,1,0-1.18-1.18A1.18,1.18,0,0,0,391,144.67Z"/><path class="cls-2" d="M386,148.47a1.19,1.19,0,1,0-1.19-1.18A1.18,1.18,0,0,0,386,148.47Z"/><path class="cls-2" d="M391,148.47a1.19,1.19,0,1,0-1.18-1.18A1.18,1.18,0,0,0,391,148.47Z"/><path class="cls-2" d="M386,152.27a1.19,1.19,0,1,0-1.19-1.19A1.19,1.19,0,0,0,386,152.27Z"/><path class="cls-2" d="M391,152.27a1.19,1.19,0,1,0-1.18-1.19A1.19,1.19,0,0,0,391,152.27Z"/><path class="cls-2" d="M386,156.53a1.19,1.19,0,1,0-1.19-1.18A1.18,1.18,0,0,0,386,156.53Z"/><path class="cls-2" d="M391,156.53a1.19,1.19,0,1,0-1.18-1.18A1.18,1.18,0,0,0,391,156.53Z"/><path class="cls-2" d="M386,160.33a1.19,1.19,0,1,0-1.19-1.19A1.18,1.18,0,0,0,386,160.33Z"/><path class="cls-2" d="M391,160.33a1.19,1.19,0,1,0-1.18-1.19A1.18,1.18,0,0,0,391,160.33Z"/><path class="cls-2" d="M386,164.12a1.18,1.18,0,1,0-1.19-1.18A1.18,1.18,0,0,0,386,164.12Z"/><path class="cls-2" d="M391,164.12a1.18,1.18,0,1,0-1.18-1.18A1.18,1.18,0,0,0,391,164.12Z"/></g></g></svg>