<svg xmlns="http://www.w3.org/2000/svg" viewBox="0 0 106.45 103.51"><defs><style>.cls-1{fill:#cfa600;}.cls-1,.cls-10,.cls-11,.cls-12,.cls-13,.cls-14,.cls-15,.cls-2,.cls-4,.cls-5,.cls-6,.cls-7,.cls-8,.cls-9{fill-rule:evenodd;}.cls-2{fill:#c3799e;}.cls-3{stroke:#000;stroke-miterlimit:22.93;stroke-width:0.57px;}.cls-4{fill:#3599bd;}.cls-5{fill:#ebecec;}.cls-6{fill:#fefefe;}.cls-7{fill:#2b2a29;}.cls-9{fill:#e31e24;}.cls-10{fill:#d91e3e;}.cls-11{fill:#afbac3;}.cls-12{fill:#fff;}.cls-13{fill:#0cf;}.cls-14{fill:#fc0;}.cls-15{fill:#1a1a1a;}</style></defs><g id="Слой_2" data-name="Слой 2"><g id="_1" data-name="1"><circle cx="52.87" cy="56.33" r="43.38" transform="translate(-11.44 13.51) rotate(-13.16)"/><path class="cls-1" d="M52.87,14A42.29,42.29,0,0,1,64,15.51H41.76A42.42,42.42,0,0,1,52.87,14Zm12.35,1.83c1.28.39,2.53.84,3.75,1.34H36.77c1.22-.5,2.47-.95,3.75-1.34Zm4.59,1.7c1,.41,1.87.86,2.78,1.34H33.15c.9-.48,1.83-.93,2.78-1.34Zm3.45,1.7c.76.42,1.52.87,2.26,1.34H30.22c.74-.47,1.49-.92,2.26-1.34ZM76.07,21c.65.43,1.29.87,1.92,1.34H27.75c.62-.47,1.26-.91,1.92-1.34Zm2.4,1.7c.57.43,1.12.88,1.67,1.34H25.6c.54-.46,1.1-.91,1.67-1.34Zm2.09,1.7c.5.43,1,.88,1.47,1.34H23.71c.48-.46,1-.91,1.47-1.34Zm1.84,1.69q.67.66,1.32,1.35H22c.43-.46.87-.91,1.31-1.35Zm1.65,1.7c.4.44.8.89,1.18,1.35H20.51c.38-.46.78-.91,1.18-1.35Zm1.48,1.7c.36.44.71.89,1.06,1.34H19.15c.34-.45.7-.9,1.06-1.34Zm1.33,1.7c.32.44.64.89,1,1.34H17.93c.31-.45.62-.9.95-1.34Zm1.19,1.7c.3.44.59.89.87,1.34H16.82c.28-.45.57-.9.86-1.34Zm1.08,1.7c.27.44.53.89.78,1.34H15.83c.25-.45.51-.9.78-1.34Zm1,1.7c.24.44.47.89.7,1.34H14.94c.22-.45.46-.9.7-1.34ZM91,38c.22.44.42.89.62,1.34H14.15c.2-.45.4-.9.62-1.34Zm.78,1.7c.19.44.37.89.55,1.34H13.44c.18-.45.36-.9.55-1.34Zm.68,1.7c.17.44.33.89.49,1.34H12.82c.15-.45.32-.9.48-1.34Zm.61,1.7.42,1.34H12.28c.13-.45.27-.9.42-1.34Zm.52,1.7c.13.44.24.89.36,1.34H11.82c.11-.45.23-.9.36-1.34Zm.44,1.7c.11.44.21.89.3,1.34H11.44c.09-.45.19-.9.29-1.34Zm.37,1.69q.13.68.24,1.35H11.12l.24-1.35Zm.3,1.7c.07.45.13.9.19,1.35h-84c.06-.45.12-.9.19-1.35Zm.23,1.7c0,.45.09.9.13,1.34H10.71c0-.44.08-.89.13-1.34Zm.15,1.7c0,.45.06.89.08,1.34H10.61c0-.45,0-.89.07-1.34Zm.09,1.7c0,.45,0,.89,0,1.34H10.57c0-.45,0-.89,0-1.34Zm0,1.7c0,.45,0,.9,0,1.34H10.61c0-.44,0-.89,0-1.34Zm0,1.7c0,.45,0,.9-.08,1.34H10.71c0-.44-.06-.89-.08-1.34ZM95,60.05c0,.45-.09.9-.15,1.34h-84c-.05-.44-.1-.89-.14-1.34Zm-.19,1.7c-.06.45-.12.89-.2,1.34H11.12c-.07-.45-.13-.89-.19-1.34Zm-.25,1.7c-.08.45-.17.89-.26,1.34H11.44c-.1-.45-.18-.89-.26-1.34Zm-.33,1.7c-.1.45-.2.89-.31,1.34H11.82c-.11-.45-.22-.89-.31-1.34Zm-.4,1.7c-.11.45-.24.89-.37,1.34H12.28c-.13-.45-.26-.89-.37-1.34Zm-.47,1.7c-.14.45-.28.89-.43,1.34H12.81c-.15-.45-.3-.89-.43-1.34Zm-.55,1.69c-.16.46-.33.9-.5,1.35H13.43c-.18-.45-.34-.89-.5-1.35Zm-.64,1.7c-.18.45-.36.9-.56,1.35H14.13c-.2-.45-.39-.9-.56-1.35Zm-.72,1.7c-.2.45-.41.9-.63,1.34H14.92c-.22-.44-.43-.89-.63-1.34Zm-.81,1.7c-.23.45-.46.9-.71,1.34H15.8c-.24-.44-.48-.89-.7-1.34Zm-.9,1.7c-.26.45-.52.9-.79,1.34H16.79c-.27-.44-.53-.89-.79-1.34Zm-1,1.7c-.29.45-.58.9-.88,1.34h-70c-.3-.44-.59-.89-.88-1.34Zm-1.13,1.7c-.31.45-.64.9-1,1.34H19.11c-.34-.44-.66-.89-1-1.34Zm-1.24,1.7c-.35.45-.71.9-1.08,1.34H20.46c-.37-.44-.73-.89-1.08-1.34ZM85,83.84c-.39.45-.79.9-1.2,1.34H22c-.41-.44-.81-.89-1.2-1.34Zm-1.54,1.7c-.44.45-.88.9-1.34,1.34H23.64c-.46-.44-.91-.89-1.34-1.34Zm-1.72,1.7c-.49.46-1,.9-1.5,1.34H25.52c-.51-.44-1-.88-1.51-1.34Zm-1.93,1.7c-.55.46-1.12.9-1.71,1.34H27.65c-.58-.44-1.15-.88-1.7-1.34ZM77.6,90.63c-.65.47-1.3.92-2,1.35H30.11c-.67-.43-1.33-.88-2-1.35Zm-2.54,1.7c-.76.48-1.54.92-2.33,1.35H33c-.79-.43-1.57-.87-2.33-1.35ZM72,94c-.94.49-1.91.93-2.89,1.34H36.59c-1-.41-2-.85-2.9-1.34Zm-3.77,1.7c-1.31.51-2.65,1-4,1.34H41.48a41.9,41.9,0,0,1-4-1.34Zm-5.38,1.7a42.43,42.43,0,0,1-20,0Z"/><circle cx="52.87" cy="56.33" r="38.08" transform="translate(-11.45 13.53) rotate(-13.17)"/><path class="cls-2" d="M52.87,19.19a37.22,37.22,0,0,1,9.2,1.15l-4,3.33.31.37,4.26-3.55a38.51,38.51,0,0,1,4.13,1.39l-2.14,1.79L65,24l2.34-1.94a37,37,0,0,1,5.83,3.1L71.2,26.81l.31.37,2-1.7c.55.37,1.09.75,1.62,1.15l-4,3.31.31.38,4.06-3.38a36.83,36.83,0,0,1,2.86,2.44l-.67.56.31.38.71-.59q.69.66,1.35,1.38l-2.37,2,.31.38,2.39-2c.42.47.84,1,1.24,1.46l-3.94,3.29.31.38L82,33.31a37.14,37.14,0,0,1,3.41,5.13l-1.11.92.32.37,1-.86c.31.58.6,1.17.88,1.77L84.31,42.5l.32.37,2.12-1.77c.27.61.53,1.23.78,1.85l-3.22,2.68.32.38,3.08-2.57q.36,1,.66,2l-4.06,3.38.32.38,3.89-3.25a37.32,37.32,0,0,1-.18,21.48l-4,3.36.32.37,3.43-2.86A37.39,37.39,0,0,1,86.54,72l-2.23,1.86.32.38L86,73.08a37.07,37.07,0,0,1-5,7.5l-3.24,2.71.29.35a37.23,37.23,0,0,1-9.32,6.28l.59-.49L69,89.06,67.1,90.65a36.54,36.54,0,0,1-4.63,1.57l0,0-.06,0a37.42,37.42,0,0,1-4,.82l4.35-3.63-.31-.37L58.08,92.7l.3.37c-1,.15-2.1.26-3.17.33l1-.83-.31-.37-1.5,1.24c-.5,0-1,0-1.52,0a36.12,36.12,0,0,1-4-.22l.82-.68-.31-.37-1.17,1c-.85-.1-1.69-.24-2.52-.4l4-3.34-.31-.37L45,92.64a37.1,37.1,0,0,1-4.34-1.21l2.39-2-.31-.37-2.61,2.18a37.13,37.13,0,0,1-3.83-1.65l.19-.16-.31-.37-.35.29c-.61-.31-1.21-.65-1.8-1l2.46-2-.31-.38-2.6,2.17a37.3,37.3,0,0,1-5.09-3.72L30,83.16l-.32-.38L28.14,84q-.72-.65-1.41-1.32L30,80l-.32-.38-3.26,2.73a38.3,38.3,0,0,1-3.92-4.7l.94-.79-.32-.37-.9.75q-.56-.8-1.05-1.62l2.27-1.9-.32-.37-2.21,1.84c-.33-.56-.65-1.13-.95-1.7l3.48-2.9-.32-.38L19.7,73.06a37.38,37.38,0,0,1-3.07-8.55l.22-.18L16.53,64h0c-.15-.72-.28-1.44-.39-2.18l.72-.6-.32-.37-.48.4c-.1-.76-.18-1.53-.23-2.3l1-.86-.32-.38-.75.63c0-.66,0-1.31,0-2v-.48l1.12-.93-.32-.38-.78.66c0-.89.08-1.77.17-2.64l.93-.78-.32-.38-.53.45c.11-1,.27-1.93.46-2.88l.39-.33-.26-.31a37.08,37.08,0,0,1,3.5-9.47l3.32-2.77-.32-.38-2.34,2a37.31,37.31,0,0,1,21-16.78L38.4,23.67l.32.37,4.19-3.5a37.19,37.19,0,0,1,10-1.35ZM23.41,67.47l-.32-.38-4.36,3.65.31.37,4.37-3.64Zm0-3.14L23.09,64,18.73,67.6,19,68l4.37-3.64Zm0-3.14-.32-.37-4.36,3.64.31.38,4.37-3.65Zm0-3.13-.32-.38-4.36,3.64.31.38,4.37-3.64Zm0-3.14-.32-.38-4.36,3.64.31.38,4.37-3.64Zm0-3.14-.32-.38-4.36,3.65.31.37,4.37-3.64Zm0-3.14-.32-.37-4.36,3.64.31.37,4.37-3.64Zm0-3.14-.32-.37-4.36,3.64.31.38,4.37-3.65Zm0-3.13L23.09,42l-4.36,3.64L19,46l4.37-3.64Zm0-3.14-.32-.38L18.73,42.5l.31.37,4.37-3.64ZM30,76.88l-.32-.37-4.37,3.64.32.37L30,76.88Zm0-3.14-.32-.37L25.28,77l.32.38L30,73.74Zm0-3.13-.32-.38-4.37,3.64.32.38L30,70.61Zm0-3.14-.32-.38-4.37,3.65.32.37L30,67.47Zm0-3.14L29.65,64,25.28,67.6l.32.37L30,64.33Zm0-3.14-.32-.37-4.37,3.64.32.38L30,61.19Zm0-3.13-.32-.38-4.37,3.64.32.38L30,58.06Zm0-3.14-.32-.38-4.37,3.64.32.38L30,54.92Zm0-3.14-.32-.38-4.37,3.65.32.37L30,51.78Zm0-3.14-.32-.37-4.37,3.64.32.37L30,48.64Zm0-3.14-.32-.37-4.37,3.64.32.38L30,45.5Zm0-3.13L29.65,42l-4.37,3.64.32.38L30,42.37Zm0-3.14-.32-.38L25.28,42.5l.32.37L30,39.23Zm0-3.14-.32-.38-4.37,3.65.32.37L30,36.09ZM30,33l-.32-.37-4.37,3.64.32.38L30,33Zm0-3.14-.32-.37-4.37,3.64.32.38L30,29.81Zm6.55,53.35-.31-.38-4.37,3.64.32.38,4.36-3.64Zm0-3.14-.31-.38-4.37,3.65.32.37L36.52,80Zm0-3.14-.31-.37-4.37,3.64.32.37,4.36-3.64Zm0-3.14-.31-.37L31.84,77l.32.38,4.36-3.65Zm0-3.13-.31-.38-4.37,3.64.32.38,4.36-3.64Zm0-3.14-.31-.38-4.37,3.65.32.37,4.36-3.64Zm0-3.14L36.21,64,31.84,67.6l.32.37,4.36-3.64Zm0-3.14-.31-.37-4.37,3.64.32.38,4.36-3.65Zm0-3.13-.31-.38-4.37,3.64.32.38,4.36-3.64Zm0-3.14-.31-.38-4.37,3.64.32.38,4.36-3.64Zm0-3.14-.31-.38-4.37,3.65.32.37,4.36-3.64Zm0-3.14-.31-.37-4.37,3.64.32.37,4.36-3.64Zm0-3.14-.31-.37-4.37,3.64.32.38,4.36-3.65Zm0-3.13L36.21,42l-4.37,3.64.32.38,4.36-3.64Zm0-3.14-.31-.38L31.84,42.5l.32.37,4.36-3.64Zm0-3.14-.31-.38-4.37,3.65.32.37,4.36-3.64Zm0-3.14-.31-.37-4.37,3.64.32.38L36.52,33Zm0-3.14-.31-.37-4.37,3.64.32.38,4.36-3.65Zm0-3.13-.31-.38-4.37,3.64.32.38,4.36-3.64Zm0-3.14-.31-.38-4.37,3.65.32.37,4.36-3.64ZM43.08,86.3l-.31-.38L38.4,89.56l.32.38,4.36-3.64Zm0-3.14-.31-.38L38.4,86.42l.32.38,4.36-3.64Zm0-3.14-.31-.38L38.4,83.29l.32.37L43.08,80Zm0-3.14-.31-.37L38.4,80.15l.32.37,4.36-3.64Zm0-3.14-.31-.37L38.4,77l.32.38,4.36-3.65Zm0-3.13-.31-.38L38.4,73.87l.32.38,4.36-3.64Zm0-3.14-.31-.38L38.4,70.74l.32.37,4.36-3.64Zm0-3.14L42.77,64,38.4,67.6l.32.37,4.36-3.64Zm0-3.14-.31-.37L38.4,64.46l.32.38,4.36-3.65Zm0-3.13-.31-.38L38.4,61.32l.32.38,4.36-3.64Zm0-3.14-.31-.38L38.4,58.18l.32.38,4.36-3.64Zm0-3.14-.31-.38L38.4,55.05l.32.37,4.36-3.64Zm0-3.14-.31-.37L38.4,51.91l.32.37,4.36-3.64Zm0-3.14-.31-.37L38.4,48.77l.32.38,4.36-3.65Zm0-3.13L42.77,42,38.4,45.63l.32.38,4.36-3.64Zm0-3.14-.31-.38L38.4,42.5l.32.37,4.36-3.64Zm0-3.14-.31-.38L38.4,39.36l.32.37,4.36-3.64Zm0-3.14-.31-.37L38.4,36.22l.32.38L43.08,33Zm0-3.14-.31-.37L38.4,33.08l.32.38,4.36-3.65Zm0-3.13-.31-.38L38.4,29.94l.32.38,4.36-3.64Zm0-3.14-.31-.38L38.4,26.81l.32.37,4.36-3.64ZM49.64,86.3l-.31-.38L45,89.56l.31.38,4.37-3.64Zm0-3.14-.31-.38L45,86.42l.31.38,4.37-3.64Zm0-3.14-.31-.38L45,83.29l.31.37L49.64,80Zm0-3.14-.31-.37L45,80.15l.31.37,4.37-3.64Zm0-3.14-.31-.37L45,77l.31.38,4.37-3.65Zm0-3.13-.31-.38L45,73.87l.31.38,4.37-3.64Zm0-3.14-.31-.38L45,70.74l.31.37,4.37-3.64Zm0-3.14L49.33,64,45,67.6l.31.37,4.37-3.64Zm0-3.14-.31-.37L45,64.46l.31.38,4.37-3.65Zm0-3.13-.31-.38L45,61.32l.31.38,4.37-3.64Zm0-3.14-.31-.38L45,58.18l.31.38,4.37-3.64Zm0-3.14-.31-.38L45,55.05l.31.37,4.37-3.64Zm0-3.14-.31-.37L45,51.91l.31.37,4.37-3.64Zm0-3.14-.31-.37L45,48.77l.31.38,4.37-3.65Zm0-3.13L49.33,42,45,45.63l.31.38,4.37-3.64Zm0-3.14-.31-.38L45,42.5l.31.37,4.37-3.64Zm0-3.14-.31-.38L45,39.36l.31.37,4.37-3.64Zm0-3.14-.31-.37L45,36.22l.31.38L49.64,33Zm0-3.14-.31-.37L45,33.08l.31.38,4.37-3.65Zm0-3.13-.31-.38L45,29.94l.31.38,4.37-3.64Zm0-3.14-.31-.38L45,26.81l.31.37,4.37-3.64Zm0-3.14L49.33,20,45,23.67l.31.37,4.37-3.64Zm6.56,69-.31-.37L51.52,92.7l.31.38,4.37-3.65Zm0-3.13-.31-.38-4.37,3.64.31.38L56.2,86.3Zm0-3.14-.31-.38-4.37,3.64.31.38,4.37-3.64Zm0-3.14-.31-.38-4.37,3.65.31.37L56.2,80Zm0-3.14-.31-.37-4.37,3.64.31.37,4.37-3.64Zm0-3.14-.31-.37L51.52,77l.31.38,4.37-3.65Zm0-3.13-.31-.38-4.37,3.64.31.38,4.37-3.64Zm0-3.14-.31-.38-4.37,3.65.31.37,4.37-3.64Zm0-3.14L55.89,64,51.52,67.6l.31.37,4.37-3.64Zm0-3.14-.31-.37-4.37,3.64.31.38,4.37-3.65Zm0-3.13-.31-.38-4.37,3.64.31.38,4.37-3.64Zm0-3.14-.31-.38-4.37,3.64.31.38,4.37-3.64Zm0-3.14-.31-.38-4.37,3.65.31.37,4.37-3.64Zm0-3.14-.31-.37-4.37,3.64.31.37,4.37-3.64Zm0-3.14-.31-.37-4.37,3.64.31.38L56.2,45.5Zm0-3.13L55.89,42l-4.37,3.64.31.38,4.37-3.64Zm0-3.14-.31-.38L51.52,42.5l.31.37,4.37-3.64Zm0-3.14-.31-.38-4.37,3.65.31.37,4.37-3.64Zm0-3.14-.31-.37-4.37,3.64.31.38L56.2,33Zm0-3.14-.31-.37-4.37,3.64.31.38,4.37-3.65Zm0-3.13-.31-.38-4.37,3.64.31.38,4.37-3.64Zm0-3.14-.31-.38-4.37,3.65.31.37,4.37-3.64Zm0-3.14L55.89,20l-4.37,3.64.31.37L56.2,20.4Zm6.56,65.9-.31-.38-4.37,3.64.31.38,4.37-3.64Zm0-3.14-.31-.38-4.37,3.64.31.38,4.37-3.64Zm0-3.14-.31-.38-4.37,3.65.31.37L62.76,80Zm0-3.14-.31-.37-4.37,3.64.31.37,4.37-3.64Zm0-3.14-.31-.37L58.08,77l.31.38,4.37-3.65Zm0-3.13-.31-.38-4.37,3.64.31.38,4.37-3.64Zm0-3.14-.31-.38-4.37,3.65.31.37,4.37-3.64Zm0-3.14L62.45,64,58.08,67.6l.31.37,4.37-3.64Zm0-3.14-.31-.37-4.37,3.64.31.38,4.37-3.65Zm0-3.13-.31-.38-4.37,3.64.31.38,4.37-3.64Zm0-3.14-.31-.38-4.37,3.64.31.38,4.37-3.64Zm0-3.14-.31-.38-4.37,3.65.31.37,4.37-3.64Zm0-3.14-.31-.37-4.37,3.64.31.37,4.37-3.64Zm0-3.14-.31-.37-4.37,3.64.31.38,4.37-3.65Zm0-3.13L62.45,42l-4.37,3.64.31.38,4.37-3.64Zm0-3.14-.31-.38L58.08,42.5l.31.37,4.37-3.64Zm0-3.14-.31-.38-4.37,3.65.31.37,4.37-3.64Zm0-3.14-.31-.37-4.37,3.64.31.38L62.76,33Zm0-3.14-.31-.37-4.37,3.64.31.38,4.37-3.65Zm0-3.13-.31-.38-4.37,3.64.31.38,4.37-3.64Zm0-3.14-.31-.38-4.37,3.65.31.37,4.37-3.64ZM69.32,86.3,69,85.92l-4.37,3.64.31.38,4.37-3.64Zm0-3.14L69,82.78l-4.37,3.64.31.38,4.37-3.64Zm0-3.14L69,79.64l-4.37,3.65.31.37L69.32,80Zm0-3.14L69,76.51l-4.37,3.64.31.37,4.37-3.64Zm0-3.14L69,73.37,64.64,77l.31.38,4.37-3.65Zm0-3.13L69,70.23l-4.37,3.64.31.38,4.37-3.64Zm0-3.14L69,67.09l-4.37,3.65.31.37,4.37-3.64Zm0-3.14L69,64,64.64,67.6,65,68l4.37-3.64Zm0-3.14L69,60.82l-4.37,3.64.31.38,4.37-3.65Zm0-3.13L69,57.68l-4.37,3.64.31.38,4.37-3.64Zm0-3.14L69,54.54l-4.37,3.64.31.38,4.37-3.64Zm0-3.14L69,51.4l-4.37,3.65.31.37,4.37-3.64Zm0-3.14L69,48.27l-4.37,3.64.31.37,4.37-3.64Zm0-3.14L69,45.13l-4.37,3.64.31.38,4.37-3.65Zm0-3.13L69,42l-4.37,3.64L65,46l4.37-3.64Zm0-3.14L69,38.85,64.64,42.5l.31.37,4.37-3.64Zm0-3.14L69,35.71l-4.37,3.65.31.37,4.37-3.64Zm0-3.14L69,32.58l-4.37,3.64.31.38L69.32,33Zm0-3.14L69,29.44l-4.37,3.64.31.38,4.37-3.65Zm0-3.13L69,26.3l-4.37,3.64.31.38,4.37-3.64Zm0-3.14L69,23.16l-4.37,3.65.31.37,4.37-3.64Zm6.56,59.62-.32-.38L71.2,86.42l.31.38,4.37-3.64Zm0-3.14-.32-.38L71.2,83.29l.31.37L75.88,80Zm0-3.14-.32-.37L71.2,80.15l.31.37,4.37-3.64Zm0-3.14-.32-.37L71.2,77l.31.38,4.37-3.65Zm0-3.13-.32-.38L71.2,73.87l.31.38,4.37-3.64Zm0-3.14-.32-.38L71.2,70.74l.31.37,4.37-3.64Zm0-3.14L75.56,64,71.2,67.6l.31.37,4.37-3.64Zm0-3.14-.32-.37L71.2,64.46l.31.38,4.37-3.65Zm0-3.13-.32-.38L71.2,61.32l.31.38,4.37-3.64Zm0-3.14-.32-.38L71.2,58.18l.31.38,4.37-3.64Zm0-3.14-.32-.38L71.2,55.05l.31.37,4.37-3.64Zm0-3.14-.32-.37L71.2,51.91l.31.37,4.37-3.64Zm0-3.14-.32-.37L71.2,48.77l.31.38,4.37-3.65Zm0-3.13L75.56,42,71.2,45.63l.31.38,4.37-3.64Zm0-3.14-.32-.38L71.2,42.5l.31.37,4.37-3.64Zm0-3.14-.32-.38L71.2,39.36l.31.37,4.37-3.64Zm0-3.14-.32-.37L71.2,36.22l.31.38L75.88,33Zm0-3.14-.32-.37L71.2,33.08l.31.38,4.37-3.65Zm6.56,47.07-.32-.37-4.36,3.64.31.37,4.37-3.64Zm0-3.14-.32-.37L77.76,77l.31.38,4.37-3.65Zm0-3.13-.32-.38-4.36,3.64.31.38,4.37-3.64Zm0-3.14-.32-.38-4.36,3.65.31.37,4.37-3.64Zm0-3.14L82.12,64,77.76,67.6l.31.37,4.37-3.64Zm0-3.14-.32-.37-4.36,3.64.31.38,4.37-3.65Zm0-3.13-.32-.38-4.36,3.64.31.38,4.37-3.64Zm0-3.14-.32-.38-4.36,3.64.31.38,4.37-3.64Zm0-3.14-.32-.38-4.36,3.65.31.37,4.37-3.64Zm0-3.14-.32-.37-4.36,3.64.31.37,4.37-3.64Zm0-3.14-.32-.37-4.36,3.64.31.38,4.37-3.65Zm0-3.13L82.12,42l-4.36,3.64.31.38,4.37-3.64Zm0-3.14-.32-.38L77.76,42.5l.31.37,4.37-3.64Zm0-3.14-.32-.38-4.36,3.65.31.37,4.37-3.64ZM89,64.33,88.68,64,84.31,67.6l.32.37L89,64.33Zm0-3.14-.32-.37-4.37,3.64.32.38L89,61.19Zm0-3.13-.32-.38-4.37,3.64.32.38L89,58.06Zm0-3.14-.32-.38-4.37,3.64.32.38L89,54.92Zm0-3.14-.32-.38-4.37,3.65.32.37L89,51.78Zm0-3.14-.32-.37-4.37,3.64.32.37Z"/><circle class="cls-3" cx="52.87" cy="56.33" r="30.92" transform="translate(-11.46 13.55) rotate(-13.19)"/><path class="cls-4" d="M52.87,26.33a30.71,30.71,0,0,1,6,.59,1.52,1.52,0,1,0,2.26,1.34,1.49,1.49,0,0,0-.27-.86,28.7,28.7,0,0,1,3.09,1,1.52,1.52,0,0,0,1.51,1.35,1.49,1.49,0,0,0,.88-.28A30.31,30.31,0,0,1,70,31.72a1.54,1.54,0,0,0-.27.87,1.52,1.52,0,0,0,1.52,1.53,1.55,1.55,0,0,0,1.16-.53,31,31,0,0,1,3.19,3.19.76.76,0,0,0,0,.15A1.52,1.52,0,0,0,77,38.44c.39.53.77,1.08,1.13,1.63a1.56,1.56,0,0,0-1-.33,1.53,1.53,0,1,0,1.53,1.53,1.75,1.75,0,0,0,0-.33,29.9,29.9,0,0,1,3.31,7.91,1.48,1.48,0,0,0-.46,1.09,1.51,1.51,0,0,0,1,1.42c.08.47.14,1,.2,1.43a1.52,1.52,0,0,0,.2,3c0,.18,0,.36,0,.54s0,.51,0,.76a1.53,1.53,0,0,0-.23,3c-.06.48-.13,1-.21,1.44A1.53,1.53,0,0,0,81.88,64a29.63,29.63,0,0,1-3.23,7.68v-.06a1.53,1.53,0,1,0-1.53,1.53,1.48,1.48,0,0,0,.7-.17c-.34.51-.7,1-1.07,1.5a1.53,1.53,0,0,0-1.15,1.42,29.2,29.2,0,0,1-3.3,3.28,1.52,1.52,0,0,0-2.56,1.12,1.48,1.48,0,0,0,.18.72,30.49,30.49,0,0,1-3.83,2.25,1.59,1.59,0,0,0-.69-.16,1.52,1.52,0,0,0-1.47,1.12c-1,.38-2,.72-3,1a1.55,1.55,0,0,0,.13-.61,1.53,1.53,0,1,0-2.51,1.17,30.38,30.38,0,0,1-10.1.22,1.53,1.53,0,1,0-1.7-.3,30,30,0,0,1-3.29-.88,1.49,1.49,0,0,0,0-.21,1.52,1.52,0,0,0-2.78-.86,30.32,30.32,0,0,1-3.94-2.1,1.53,1.53,0,1,0-2.18-1.54,29,29,0,0,1-3.36-3,1.52,1.52,0,0,0-1-2.68,1.53,1.53,0,0,0-1,.38,29.67,29.67,0,0,1-3.83-6.39,1.54,1.54,0,0,0,.51-1.14,1.52,1.52,0,0,0-1.52-1.52h0q-.23-.67-.42-1.35a1.53,1.53,0,0,0,2-1.47,1.52,1.52,0,0,0-1.52-1.52,1.54,1.54,0,0,0-1,.39c-.15-.84-.27-1.7-.36-2.57a1.53,1.53,0,1,0-.08-1c0-.62-.06-1.24-.06-1.87s0-1.13.05-1.69a1.52,1.52,0,1,0,1.48-1.89,1.51,1.51,0,0,0-1.41,1A26.34,26.34,0,0,1,23.34,51a1.5,1.5,0,0,0,1.06.43,1.53,1.53,0,0,0,0-3.05,1.57,1.57,0,0,0-.49.08c.12-.46.26-.92.4-1.37h.09a1.52,1.52,0,0,0,1.52-1.52,1.55,1.55,0,0,0-.58-1.2A29.71,29.71,0,0,1,29.15,38a1.49,1.49,0,0,0,1.11.48,1.52,1.52,0,0,0,1.52-1.52,1.54,1.54,0,0,0-.66-1.26,30.18,30.18,0,0,1,3.47-3.12v0a1.53,1.53,0,1,0,2-1.45,29.71,29.71,0,0,1,4-2.2,1.52,1.52,0,0,0,2.88-.68,1.4,1.4,0,0,0-.06-.41,28.59,28.59,0,0,1,3.77-1,1.53,1.53,0,1,0,.72-.13,29.85,29.85,0,0,1,4.94-.41ZM77.13,65.76a1.52,1.52,0,1,0,1.53,1.52,1.52,1.52,0,0,0-1.53-1.52Zm0-4.34a1.53,1.53,0,0,0,0,3,1.53,1.53,0,1,0,0-3Zm0-4.34a1.53,1.53,0,1,0,1.53,1.53,1.53,1.53,0,0,0-1.53-1.53Zm0-4.33a1.53,1.53,0,0,0,0,3,1.53,1.53,0,1,0,0-3Zm0-4.34a1.53,1.53,0,1,0,1.53,1.53,1.53,1.53,0,0,0-1.53-1.53Zm0-4.33a1.52,1.52,0,1,0,1.53,1.52,1.52,1.52,0,0,0-1.53-1.52ZM71.27,74.43A1.52,1.52,0,1,0,72.8,76a1.52,1.52,0,0,0-1.53-1.52Zm0-4.34a1.53,1.53,0,1,0,1.53,1.52,1.52,1.52,0,0,0-1.53-1.52Zm0-4.33a1.52,1.52,0,1,0,1.53,1.52,1.52,1.52,0,0,0-1.53-1.52Zm0-4.34a1.53,1.53,0,0,0,0,3,1.53,1.53,0,1,0,0-3Zm0-4.34a1.53,1.53,0,1,0,1.53,1.53,1.53,1.53,0,0,0-1.53-1.53Zm0-4.33a1.53,1.53,0,0,0,0,3,1.53,1.53,0,1,0,0-3Zm0-4.34a1.53,1.53,0,1,0,1.53,1.53,1.53,1.53,0,0,0-1.53-1.53Zm0-4.33A1.52,1.52,0,1,0,72.8,45.6a1.52,1.52,0,0,0-1.53-1.52Zm0-4.34a1.53,1.53,0,1,0,1.53,1.53,1.52,1.52,0,0,0-1.53-1.53Zm0-4.33a1.52,1.52,0,1,0,1.53,1.52,1.52,1.52,0,0,0-1.53-1.52ZM65.41,78.76a1.53,1.53,0,1,0,1.53,1.53,1.53,1.53,0,0,0-1.53-1.53Zm0-4.33A1.52,1.52,0,1,0,66.94,76a1.52,1.52,0,0,0-1.53-1.52Zm0-4.34a1.53,1.53,0,1,0,1.53,1.52,1.52,1.52,0,0,0-1.53-1.52Zm0-4.33a1.52,1.52,0,1,0,1.53,1.52,1.52,1.52,0,0,0-1.53-1.52Zm0-4.34a1.53,1.53,0,0,0,0,3,1.53,1.53,0,1,0,0-3Zm0-4.34a1.53,1.53,0,1,0,1.53,1.53,1.53,1.53,0,0,0-1.53-1.53Zm0-4.33a1.53,1.53,0,0,0,0,3,1.53,1.53,0,1,0,0-3Zm0-4.34a1.53,1.53,0,1,0,1.53,1.53,1.53,1.53,0,0,0-1.53-1.53Zm0-4.33a1.52,1.52,0,1,0,1.53,1.52,1.52,1.52,0,0,0-1.53-1.52Zm0-4.34a1.53,1.53,0,1,0,1.53,1.53,1.52,1.52,0,0,0-1.53-1.53Zm0-4.33a1.52,1.52,0,1,0,1.53,1.52,1.52,1.52,0,0,0-1.53-1.52Zm0-4.34a1.53,1.53,0,1,0,1.53,1.52,1.52,1.52,0,0,0-1.53-1.52ZM59.55,78.76a1.53,1.53,0,1,0,1.53,1.53,1.53,1.53,0,0,0-1.53-1.53Zm0-4.33A1.52,1.52,0,1,0,61.08,76a1.52,1.52,0,0,0-1.53-1.52Zm0-4.34a1.53,1.53,0,1,0,1.53,1.52,1.52,1.52,0,0,0-1.53-1.52Zm0-4.33a1.52,1.52,0,1,0,1.53,1.52,1.52,1.52,0,0,0-1.53-1.52Zm0-4.34a1.53,1.53,0,1,0,1.53,1.52,1.52,1.52,0,0,0-1.53-1.52Zm0-4.34a1.53,1.53,0,1,0,1.53,1.53,1.53,1.53,0,0,0-1.53-1.53Zm0-4.33a1.53,1.53,0,1,0,1.53,1.52,1.52,1.52,0,0,0-1.53-1.52Zm0-4.34a1.53,1.53,0,1,0,1.53,1.53,1.53,1.53,0,0,0-1.53-1.53Zm0-4.33a1.52,1.52,0,1,0,1.53,1.52,1.52,1.52,0,0,0-1.53-1.52Zm0-4.34a1.53,1.53,0,1,0,1.53,1.53,1.52,1.52,0,0,0-1.53-1.53Zm0-4.33a1.52,1.52,0,1,0,1.53,1.52,1.52,1.52,0,0,0-1.53-1.52Zm0-4.34a1.53,1.53,0,1,0,1.53,1.52,1.52,1.52,0,0,0-1.53-1.52Zm-5.86,52a1.53,1.53,0,1,0,1.53,1.52,1.52,1.52,0,0,0-1.53-1.52Zm0-4.34a1.53,1.53,0,1,0,1.53,1.53,1.53,1.53,0,0,0-1.53-1.53Zm0-4.33A1.52,1.52,0,1,0,55.22,76a1.52,1.52,0,0,0-1.53-1.52Zm0-4.34a1.53,1.53,0,1,0,1.53,1.52,1.52,1.52,0,0,0-1.53-1.52Zm0-4.33a1.52,1.52,0,1,0,1.53,1.52,1.52,1.52,0,0,0-1.53-1.52Zm0-4.34a1.53,1.53,0,1,0,1.53,1.52,1.52,1.52,0,0,0-1.53-1.52Zm0-4.34a1.53,1.53,0,1,0,1.53,1.53,1.53,1.53,0,0,0-1.53-1.53Zm0-4.33a1.53,1.53,0,1,0,1.53,1.52,1.52,1.52,0,0,0-1.53-1.52Zm0-4.34a1.53,1.53,0,1,0,1.53,1.53,1.53,1.53,0,0,0-1.53-1.53Zm0-4.33a1.52,1.52,0,1,0,1.53,1.52,1.52,1.52,0,0,0-1.53-1.52Zm0-4.34a1.53,1.53,0,1,0,1.53,1.53,1.52,1.52,0,0,0-1.53-1.53Zm0-4.33a1.52,1.52,0,1,0,1.53,1.52,1.52,1.52,0,0,0-1.53-1.52Zm0-4.34a1.53,1.53,0,1,0,1.53,1.52,1.52,1.52,0,0,0-1.53-1.52Zm0-4.34a1.53,1.53,0,1,0,1.53,1.53,1.53,1.53,0,0,0-1.53-1.53Zm-5.86,52a1.53,1.53,0,1,0,1.53,1.53,1.53,1.53,0,0,0-1.53-1.53Zm0-4.33A1.52,1.52,0,1,0,49.36,76a1.52,1.52,0,0,0-1.53-1.52Zm0-4.34a1.53,1.53,0,1,0,1.53,1.52,1.52,1.52,0,0,0-1.53-1.52Zm0-4.33a1.52,1.52,0,1,0,1.53,1.52,1.52,1.52,0,0,0-1.53-1.52Zm0-4.34a1.53,1.53,0,1,0,1.53,1.52,1.52,1.52,0,0,0-1.53-1.52Zm0-4.34a1.53,1.53,0,1,0,1.53,1.53,1.53,1.53,0,0,0-1.53-1.53Zm0-4.33a1.53,1.53,0,1,0,1.53,1.52,1.52,1.52,0,0,0-1.53-1.52Zm0-4.34a1.53,1.53,0,1,0,1.53,1.53,1.53,1.53,0,0,0-1.53-1.53Zm0-4.33a1.52,1.52,0,1,0,1.53,1.52,1.52,1.52,0,0,0-1.53-1.52Zm0-4.34a1.53,1.53,0,1,0,1.53,1.53,1.52,1.52,0,0,0-1.53-1.53Zm0-4.33a1.52,1.52,0,1,0,1.53,1.52,1.52,1.52,0,0,0-1.53-1.52Zm0-4.34a1.53,1.53,0,1,0,1.53,1.52,1.52,1.52,0,0,0-1.53-1.52ZM42,78.76a1.53,1.53,0,1,0,1.52,1.53A1.53,1.53,0,0,0,42,78.76Zm0-4.33A1.52,1.52,0,1,0,43.5,76,1.52,1.52,0,0,0,42,74.43Zm0-4.34a1.53,1.53,0,1,0,1.52,1.52A1.52,1.52,0,0,0,42,70.09Zm0-4.33a1.52,1.52,0,1,0,1.52,1.52A1.52,1.52,0,0,0,42,65.76Zm0-4.34a1.53,1.53,0,1,0,1.52,1.52A1.52,1.52,0,0,0,42,61.42Zm0-4.34a1.53,1.53,0,1,0,1.52,1.53A1.53,1.53,0,0,0,42,57.08Zm0-4.33a1.53,1.53,0,1,0,1.52,1.52A1.52,1.52,0,0,0,42,52.75Zm0-4.34a1.53,1.53,0,1,0,1.52,1.53A1.53,1.53,0,0,0,42,48.41Zm0-4.33A1.52,1.52,0,1,0,43.5,45.6,1.52,1.52,0,0,0,42,44.08Zm0-4.34a1.53,1.53,0,1,0,1.52,1.53A1.52,1.52,0,0,0,42,39.74Zm0-4.33a1.52,1.52,0,1,0,1.52,1.52A1.52,1.52,0,0,0,42,35.41Zm0-4.34a1.53,1.53,0,1,0,1.52,1.52A1.52,1.52,0,0,0,42,31.07ZM36.12,74.43A1.52,1.52,0,1,0,37.64,76a1.52,1.52,0,0,0-1.52-1.52Zm0-4.34a1.53,1.53,0,1,0,1.52,1.52,1.52,1.52,0,0,0-1.52-1.52Zm0-4.33a1.52,1.52,0,1,0,1.52,1.52,1.52,1.52,0,0,0-1.52-1.52Zm0-4.34a1.53,1.53,0,1,0,1.52,1.52,1.52,1.52,0,0,0-1.52-1.52Zm0-4.34a1.53,1.53,0,1,0,1.52,1.53,1.53,1.53,0,0,0-1.52-1.53Zm0-4.33a1.53,1.53,0,1,0,1.52,1.52,1.52,1.52,0,0,0-1.52-1.52Zm0-4.34a1.53,1.53,0,1,0,1.52,1.53,1.53,1.53,0,0,0-1.52-1.53Zm0-4.33a1.52,1.52,0,1,0,1.52,1.52,1.52,1.52,0,0,0-1.52-1.52Zm0-4.34a1.53,1.53,0,1,0,1.52,1.53,1.52,1.52,0,0,0-1.52-1.53Zm0-4.33a1.52,1.52,0,1,0,1.52,1.52,1.52,1.52,0,0,0-1.52-1.52ZM30.26,70.09a1.53,1.53,0,1,0,1.52,1.52,1.53,1.53,0,0,0-1.52-1.52Zm0-4.33a1.52,1.52,0,1,0,1.52,1.52,1.53,1.53,0,0,0-1.52-1.52Zm0-4.34a1.53,1.53,0,1,0,1.52,1.52,1.53,1.53,0,0,0-1.52-1.52Zm0-4.34a1.53,1.53,0,1,0,0,3.05,1.53,1.53,0,0,0,0-3.05Zm0-4.33a1.53,1.53,0,1,0,1.52,1.52,1.53,1.53,0,0,0-1.52-1.52Zm0-4.34a1.53,1.53,0,1,0,0,3.05,1.53,1.53,0,0,0,0-3.05Zm0-4.33a1.52,1.52,0,1,0,1.52,1.52,1.53,1.53,0,0,0-1.52-1.52Zm0-4.34a1.53,1.53,0,1,0,1.52,1.53A1.53,1.53,0,0,0,30.26,39.74Z"/><path class="cls-5" d="M42.57,42.18a25,25,0,0,1,3.76,8.47c.26,1.47.06,3.63.8,5,.25.44.87,0,.63-.45-.82-1.45-.46-4-.88-5.67a28.37,28.37,0,0,0-3.68-7.74C42.94,41.31,42.31,41.76,42.57,42.18Z"/><path class="cls-5" d="M51.61,42.92a13.53,13.53,0,0,0,4.2-1.46c.44-.23.18-1-.27-.72a13,13,0,0,1-4,1.41C51,42.22,51.12,43,51.61,42.92Z"/><path class="cls-5" d="M53.11,42.17a12.58,12.58,0,0,1,0,4.89c-.11.48.65.6.76.12a12.83,12.83,0,0,0-.05-5.09C53.79,41.6,53,41.67,53.11,42.17Z"/><path class="cls-5" d="M53.68,47.48c1.69-.69,3.33-1.83,5.2-1.88.5,0,.42-.78-.07-.77-2,.05-3.64,1.21-5.4,1.93C53,46.94,53.22,47.67,53.68,47.48Z"/><path class="cls-5" d="M58.74,44.53c-.06.75,0,1.92,1,1.94a.38.38,0,0,0,.35-.42.4.4,0,0,0-.42-.35s0,0,0-.06a.65.65,0,0,1-.09-.23,2.16,2.16,0,0,1,0-.76C59.54,44.15,58.78,44,58.74,44.53Z"/><path class="cls-6" d="M68.06,91.66c-3.07-.3-6-.68-9.1-.93-5.19-.42-15.58-1-25.32-1.3a31.47,31.47,0,0,0,4.48,2.85L65,93.2A31.26,31.26,0,0,0,68.06,91.66Z"/><path class="cls-6" d="M33.9,67.08a1,1,0,0,0-.57-.27,1.67,1.67,0,0,0-1,.36l-.29.19a4.85,4.85,0,0,1,2.1-1.17c.12-.07-8.52,1.61-3.29,8.47a38,38,0,0,0,3.92,3.9c-.16-.27-.29-.54-.41-.79a23.91,23.91,0,0,0,2.16,2l.92.71c-.21,0-.43.11-.45.27a.21.21,0,0,0,0,.12c-.22,0-.43,0-.44.27a.59.59,0,0,0-.23,0,.42.42,0,0,0-.23.33.46.46,0,0,0,.1.32l0,0a.49.49,0,0,0-.11.28.53.53,0,0,0,0,.25.75.75,0,0,0,.43.41,3.93,3.93,0,0,0,1,.13.31.31,0,0,0-.05.1.47.47,0,0,0,.1.44l0,0a1.28,1.28,0,0,0,.86.22l.25,0,.19,0h.22l.25,0a2.08,2.08,0,0,0,2-.5l.48.34a22.5,22.5,0,0,0-2.77,2.15A10.54,10.54,0,0,0,36,90.65a7.73,7.73,0,0,0,3,8.43,10.81,10.81,0,0,0,5.74,1.81c8.87.6,21.19-6.62,19.28-15.17-3.16,5.4-11.19,9.72-17.48,8.72-1.43-.22-1.55-.91-1-2.24a4.2,4.2,0,0,1,.68-1.3c.32.07,0,1-.35,1.42,0,.68,14.2-.12,14.06-8.91a7.82,7.82,0,0,0-1-3.54,4.79,4.79,0,0,0-1.76-1.81l-.49-.26h0c-.16-.14-3.8-2.46-4.7-3-.61-.37-.26-.28.08-.11,2.28-4.87,5.28-8,4.71-11.11a3.82,3.82,0,0,0-.33-1.15,2.23,2.23,0,0,0-1.19-1.12,2.77,2.77,0,0,0-1.35-.16A14.25,14.25,0,0,0,55,59.69a1,1,0,0,0,.42.16c1.31.26,2.66-.77,3.55-2a5.21,5.21,0,0,0,1.69-.35,6,6,0,0,0,1.88-1.21,6.41,6.41,0,0,0,1.37-1.83,9.69,9.69,0,0,0,.76-2.26,13.74,13.74,0,0,0,.29-2.69,7.56,7.56,0,0,0-.17-1.74,4.62,4.62,0,0,0-.44-1.17.75.75,0,0,0-.07-.12c-.23.09,0,0,.09,0,4.06-1.69,1.85-7.16-1.29-8a3.45,3.45,0,0,1,.23.43,4.31,4.31,0,0,0-.82-.6,12,12,0,0,0-1.87-1,8.89,8.89,0,0,0-2.06-.54l-.28,0a7.26,7.26,0,0,0-6.58-.72c.31.18,2.3.07-.71.5-8.84-1.67-26.24,15-12.27,24.94a14.92,14.92,0,0,1-2.21-7.2c.34,3,2,5.73,3.72,8.81A1.64,1.64,0,0,0,39,62.36C41.78,65.46,37.21,65.66,33.9,67.08Z"/><path class="cls-6" d="M54.83,58.94c.09,1.52,2.55.88,3.73-1,.31-.49,1.08-1.22,1.06-1.81a4.4,4.4,0,0,0-.1-1.56c-.17-.34-.23-.17-.44-.22s-.56.28-.86.3a6.58,6.58,0,0,1-.32-3.29,12.84,12.84,0,0,0,1-2.38,4.15,4.15,0,0,0-.1-1.77c-.2-.59.17-.89-.81-1.17a33.08,33.08,0,0,0-3.54-.7A20.47,20.47,0,0,0,52,45.1a5.89,5.89,0,0,0-2.8.39,8.89,8.89,0,0,0-2.44,1.95,2,2,0,0,0-.69,1.21c-.06.41-.07,1-.16,1.6a4.49,4.49,0,0,1-.51,1.61,1.7,1.7,0,0,1-.88.68,1.77,1.77,0,0,1-.65.11.57.57,0,0,0-.65.82,2.18,2.18,0,0,0,.16.57c.07.14.15.22.1.32a1.17,1.17,0,0,1-.35.27c-.1.06-.1.06-.2.34a10,10,0,0,0-.41,1.47,8.25,8.25,0,0,0-.08,1.75c0,.49.08.81.08,1.09a2.83,2.83,0,0,1,0,.43c0,.18.06.62.3.71C46.07,61.79,52.71,61.41,54.83,58.94Z"/><path class="cls-7" d="M59.49,36.56c3.48.61,5.35,5.65,2.55,7.7,2.39-2.43-.47-6.51-1.6-6.84,1.32,3.49-1,6.82-4.48,8.67a6.76,6.76,0,0,0,2.49.26c-.09.28,0,.59.37,1,.33-.77,2.81,0,4.72-.67.06.12.12.25.17.37-.3.4-1,2.51-.52,3.2-2-2.91-5.09,1.84-1.76,2.67-.32-.62,1.58-2.39,1.75.75l-.11.24a6,6,0,0,1-1.26,1.69,5.4,5.4,0,0,1-1.71,1.1,5.13,5.13,0,0,1-.78.22c-.21.32-.49.63-.67.89h.21a5.69,5.69,0,0,0,1.77-.36,6,6,0,0,0,1.88-1.21,6.41,6.41,0,0,0,1.37-1.83,9.69,9.69,0,0,0,.76-2.26,13.74,13.74,0,0,0,.29-2.69,7.56,7.56,0,0,0-.17-1.74,4.62,4.62,0,0,0-.44-1.17l-.06-.11s0,0,.08-.05a3.36,3.36,0,0,0,2.17-4.3C65.92,38.65,61.47,35.53,59.49,36.56Z"/><path class="cls-7" d="M34.83,77.57a13.45,13.45,0,0,0,2.68,2.93c-.22,0-.51.1-.53.28a.21.21,0,0,0,0,.12c-.22,0-.43,0-.44.27a.59.59,0,0,0-.23,0,.42.42,0,0,0-.23.33.46.46,0,0,0,.1.32l0,0a.49.49,0,0,0-.11.28.53.53,0,0,0,0,.25.75.75,0,0,0,.43.41,3.93,3.93,0,0,0,1,.13.31.31,0,0,0-.05.1.47.47,0,0,0,.1.44l0,0a1.28,1.28,0,0,0,.86.22l.25,0,.19,0h.22l.25,0a2.08,2.08,0,0,0,2-.5l.48.34c.56-.37,1.14-.73,1.72-1.06l-.6-.33a1,1,0,0,0-.17-.11l-.19-.1-.08,0,.82-1h0l.64.38c0-.15-.34-.38-.52-.53l.28-.32.89.72v.08a.92.92,0,0,0,0,.58v0h.17l0,0h0l.08,0h0l.06,0h.06l0,0h0l.24-.12h0c0-.21.06-.53.09-.82a3.64,3.64,0,0,0,0-.93h-.08v0h0c0-.13-.06-.28-.1-.43l0-.12q0-.18-.09-.39v0c-.08-.37-.16-.78-.23-1.23a2.71,2.71,0,0,0,1.51-.06,3.49,3.49,0,0,0,.8-.33,7.24,7.24,0,0,0,1.08-.71c2.29-1.76,5-5,5.84-7.79a.57.57,0,0,0-.3-.55,18.62,18.62,0,0,1-1.57,3.16A2.59,2.59,0,0,1,52.1,68C50.44,68.77,50,71.62,51,72.2l0,0a20.38,20.38,0,0,1-3.28,3.15c-.38-.5.35-1.76,1.22-2.1-1.6-.14-3.46,1.33-3.32,3a1.93,1.93,0,0,1-.76-.13,3.55,3.55,0,0,1-1-.62h0l-.21-.17h0l-.09-.07a11.72,11.72,0,0,1-2.77-3.94,8.15,8.15,0,0,1-.54-1.85h0a1.19,1.19,0,0,1,.82-.48.33.33,0,0,1,.16,0,7.34,7.34,0,0,0,.89,2.8,4,4,0,0,0,2.85,2.14l.37,0c4.71.09,6.11-14.63,9.81-11.67,0,0-3.22,2.26-2.11,4.93.14-1,1.43-2.54,2.45-2.1.2.09.27.28.36.37-.25,2.38-5,9.21-5,9.75,0,.11.28.16.53.31.79.5,2.1,1.17,3.21,1.86h2c-.16-.14-3.8-2.46-4.7-3-.61-.37-.26-.28.08-.11,2.28-4.87,5.28-8,4.71-11.11a3.82,3.82,0,0,0-.33-1.15,2.23,2.23,0,0,0-1.19-1.12,2.77,2.77,0,0,0-1.35-.16,9.83,9.83,0,0,0,1.21-1.63.87.87,0,0,1-.22-.58,5.87,5.87,0,0,1-2.61,1.57h0a12.36,12.36,0,0,0-.17,1.93h0a9.61,9.61,0,0,0-1,2c-.74,2.17-3.28,8.91-5.59,8.87l-.3,0-.15,0h.07c.12-.64.24-.87.18-1l-.05,0h0l0,0h0l0,0h0l-.05,0h0l0,0h0l0,0h0l0,0h0l0,0h0l0,0h0l0,0h0l0,0h0l-.07,0h0l0,0h0l0,0h0a.23.23,0,0,1-.07-.07h0l0,0h0l0,0h0l0,0h0l0,0h0l0,0h0l0,0h0l0,0h0l0,0h0l0,0h0l0,0h0l0,0h0l0,0h0l0,0h0v0h0l0,0h0l0,0h0v-.08h0v0h0l0,0h0v0h0l0,0v0h0v0h0v0h0v0h0v0h0v0h0v0h0s0,0,0-.07h0v0h0V70h0v0h0v0h0v0h0v0h0v0h0v-.07h0v0h0v0h0v0h0v0h0v0a.57.57,0,0,0-.21-.26h-.15v0h0v0h.16c.14-.08.34.06.36,0a2.87,2.87,0,0,1,2.36-1.69c.15-.07.16-.16.14-.42a7.22,7.22,0,0,1-.06-1.15,4.49,4.49,0,0,1,.26-1.33,1.84,1.84,0,0,1,.52-.82A1.3,1.3,0,0,1,48,63a2.71,2.71,0,0,1,.91.13,5.26,5.26,0,0,0,.65.12A11.93,11.93,0,0,0,50,61h0a14.2,14.2,0,0,1-7.23-.6c-.24-.09-.32-.53-.3-.71a2.83,2.83,0,0,0,0-.43c0-.28-.06-.6-.08-1.09a8.25,8.25,0,0,1,.08-1.75A10,10,0,0,1,43,55c.1-.28.1-.28.2-.34a1.17,1.17,0,0,0,.35-.27c.05-.1,0-.18-.1-.32a2.18,2.18,0,0,1-.16-.57.57.57,0,0,1,.65-.82,1.77,1.77,0,0,0,.65-.11,1.7,1.7,0,0,0,.88-.68,4.49,4.49,0,0,0,.51-1.61c.09-.6.1-1.19.16-1.6a2,2,0,0,1,.69-1.21c.18-.19.4-.42.65-.66a10.15,10.15,0,0,1,6.92-1.5l-.22-.1h.09A3.41,3.41,0,0,0,55,39.94c2.19,1.55.94,4.33-.38,6,9.36-1.91,7-14.11-2.91-10,2,.35,6.93,1.49,6.64,4.92C57,37.54,54,36.27,51,36.38c-8.84-1.67-26.24,15-12.27,24.94a14.92,14.92,0,0,1-2.21-7.2c.34,3,2,5.73,3.72,8.81A1.64,1.64,0,0,0,39,62.36c4.43,4.93-9.67,2.53-7.86,9.29.9-3,4.61-2.61,7.37-3.12a6.3,6.3,0,0,0,1.11-.35v0c-3.23,1.54-8.55-.1-8.1,5.89-1.51-2.66-1.28-6.81,2.62-7.93.12-.07-8.52,1.61-3.29,8.47a38,38,0,0,0,3.92,3.9C32,73.83,36.7,71.23,40,71.68c-3.83-2.1-6,.06-7.3,1.67,1.89-3.76,5.42-3.53,7.72-1.56-1.47-.07-2.9,1.36-2.61,3.56.27,1.65,1.87,3.13,3.54,4.3l-.29.43c-.1.15-.24.3-.35.44l-.09.1c-2.59-1.91-6.3-5.22-3.9-7.2-1.09,2-.29,3.75,3.42,5.8-1.55-.89-4.4-5.16-1-7.14-2.24-.66-6.28,2.4-4.33,5.49Zm7.38-2.91c.17.2.34.4.52.58a5.59,5.59,0,0,0-2.43,2.23,3.08,3.08,0,0,1,1.76-2.74l.15-.07Zm-.31,4c-.44-1.18.28-1.94,1.3-2.85l.11,0,.13.12c-.29.44-.51.92-.76,1.38l-.33.61Z"/><path class="cls-7" d="M44.5,58.8c-3,1.12-3.92.29-3.62-1.63a1.71,1.71,0,0,1,.25-.66,1.22,1.22,0,0,1,.49-.41A1.53,1.53,0,0,1,42.2,56a.74.74,0,0,1,.47.12c-1.27-1.38-.57-2.41.29-1.87S44.64,57.91,44.5,58.8Z"/><path class="cls-8" d="M57,55.15c2.8-1.31,2.76,1.26.62,3.48-1.51,1.57-3.12.9-2.63-.09-.05.77.67.92,1.21.63s.55-.56.08-1-1.08-.08-1.3.19c-.38.65-.49,1.35.41,1.53,2.77.55,5.73-4.69,4.09-5.55C58.77,53.93,57.45,54.84,57,55.15Z"/><path class="cls-7" d="M61.54,48.08c-.36-.35,0-.91.58-.63a.49.49,0,0,1,.26.45C62.34,48.22,61.66,48.15,61.54,48.08Z"/><path class="cls-7" d="M61.33,54.56c-.18.43-.84.25-.82-.38a.39.39,0,0,1,.31-.36C61.13,53.77,61.35,54.43,61.33,54.56Z"/><path class="cls-7" d="M70.3,70c-1.18-6.66-7.84-8.56-7-12.52-4.67,2.38-5,8.44-3.58,13.08.68,2.17,5,9.32,4.45,15,8.35-3.17,26.18-15.84,12.55-31.09C77.49,57,69.53,61.6,70.3,70Z"/><path class="cls-7" d="M52.73,77.77c-.52.31-.67.81-1.76,1.38s-3.15,1.21-5.41,2.31a27.89,27.89,0,0,0-6.48,4.27A10.54,10.54,0,0,0,36,90.65a7.73,7.73,0,0,0,3,8.43,10.81,10.81,0,0,0,5.74,1.81c8.87.6,21.19-6.62,19.28-15.17-3.16,5.4-11.19,9.72-17.48,8.72-1.43-.22-1.55-.91-1-2.24a4.2,4.2,0,0,1,.68-1.3c.32.07,0,1-.35,1.42,0,.68,14.2-.12,14.06-8.91a7.82,7.82,0,0,0-1-3.54,4.79,4.79,0,0,0-1.76-1.81A4.86,4.86,0,0,0,55,77.38,4.16,4.16,0,0,0,52.73,77.77Z"/><path class="cls-6" d="M49.88,98.88c5.22-1.54,11-3.93,12.82-9.5C61.56,95.08,55,97.93,49.88,98.88Z"/><path class="cls-6" d="M56,78.89c3.43,1.31,3.88,7.17.91,8.65C59.36,85.92,59.08,80.6,56,78.89Z"/><path class="cls-6" d="M37.09,90.63c-.34,2.51-.05,4.89,1.86,6.68C36.54,96.32,36.1,92.75,37.09,90.63Z"/><path class="cls-6" d="M45.68,90.4a.72.72,0,0,1,1.43.21C46.53,90.06,46.46,90,45.68,90.4Z"/><path class="cls-6" d="M37.16,49.65a16.33,16.33,0,0,1,6.73-8.79,16.19,16.19,0,0,0-9.15,13.72C35.92,40.42,51,35,54.11,40.24,51.28,36.84,42.65,39.39,37.16,49.65Z"/><path class="cls-7" d="M46.42,53.86a1.82,1.82,0,0,1-.83-1.4v-.31l.35.07A2.81,2.81,0,0,0,47.54,52c.31-.11.52-.19.79,0l.06,0,.06.07c.58.72,1.91,1,3.47,1-.34,1.2-1.21,1.4-2.74,1.45a5.45,5.45,0,0,1-1.46-.14A3.93,3.93,0,0,1,46.42,53.86Z"/><path class="cls-7" d="M49,50.92a2.39,2.39,0,0,0-.74,1.38l0,.06h0a.26.26,0,0,1-.36,0,.5.5,0,0,1-.22-.41h0s0,0,0-.07a2.24,2.24,0,0,1,.32-.66A.91.91,0,0,1,49,50.92Z"/><path class="cls-7" d="M49.66,51c1-.25,2.07,1.25,2.25,2.07,0,.18-.1.31-.3.29a.5.5,0,0,1-.43-.35A3.71,3.71,0,0,0,49.66,51Z"/><path class="cls-7" d="M43.43,53.64a2.15,2.15,0,0,0,.67.43c.33.08.51-.21.39-.5a.45.45,0,0,1,.4.26c.2.64-.38,1-.91.67C43.77,54.38,43.37,54,43.43,53.64Z"/><path class="cls-7" d="M58.31,47.33c1.79.58-.89,4.25-.38,6.5C56.3,51,59.27,49.67,58.31,47.33Z"/><path class="cls-7" d="M58.33,47.26c1.08.34.67,1.68.2,3.19A7.17,7.17,0,0,0,58,53.81l.11.48-.25-.42a3.63,3.63,0,0,1,.06-3.76,3.26,3.26,0,0,0,.32-2.75l-.06-.15.15,0Zm.05,3.15c.42-1.35.8-2.56.06-2.95a3.46,3.46,0,0,1-.39,2.7,3.67,3.67,0,0,0-.26,3.25A9.28,9.28,0,0,1,58.38,50.41Z"/><path class="cls-7" d="M59.85,48.89c.52-.07.61.56-.05.88a.43.43,0,0,1-.5-.08C59.13,49.46,59.71,48.94,59.85,48.89Z"/><path class="cls-7" d="M48.32,48.1a.5.5,0,0,1,.3-.06,10,10,0,0,1,2.58,1.1,5.07,5.07,0,0,1,1.94,2.93,6.26,6.26,0,0,0-2.44-1.79,13.91,13.91,0,0,0-2.48-.9A.89.89,0,0,1,48.32,48.1Z"/><path class="cls-9" d="M40,68.05v0l.43-.25Z"/><path class="cls-9" d="M43.56,72.47a4.16,4.16,0,0,1-.54-.64Z"/><path class="cls-7" d="M46.21,74.76s0,0,0,0h0S46.21,74.74,46.21,74.76Z"/><path class="cls-7" d="M49.31,67.09c-1.81,0-4.13,2.91-1.82,4.88h0c.06.06,0,.25-.12.43s-.27.28-.33.23C45,71.08,46.28,66.84,49.31,67.09Z"/><path class="cls-7" d="M47.91,64.16c.63.5,1.31.24,1.36.38a.31.31,0,0,1-.19.39C48.64,65.08,47.72,64.62,47.91,64.16Z"/><path class="cls-7" d="M46,77.86a.5.5,0,0,1,0-.13s.57-.29.74,0a1.07,1.07,0,0,1,.09.27,1.76,1.76,0,0,1,0,.33C46.85,79.15,45.78,78.77,46,77.86Z"/><path class="cls-10" d="M43.83,57.1a2.84,2.84,0,0,0-1.24-1c-.31-.45-.67-1.08-.21-1.56.23-.24.53.07.66.26A7.08,7.08,0,0,1,43.83,57.1Z"/><path class="cls-10" d="M43.8,57.78a5.83,5.83,0,0,0-.72-.89,1.54,1.54,0,0,0-.52-.35.85.85,0,0,0-.57,0,.73.73,0,0,0-.19.07,1.25,1.25,0,0,0-.37.31,1.4,1.4,0,0,0-.24.69,1.47,1.47,0,0,0,.14.69,1,1,0,0,0,.29.35.54.54,0,0,0,.17.08h0l.23,0,.12,0a2.87,2.87,0,0,0,.42,0l.53,0,.32,0a3.69,3.69,0,0,0,.85-.22l-.07-.13-.1-.14h0l0,0-.1-.15,0,0h0l0,0v0h0l0,0,0,0h0l0,0v0h0l0,0h0v0Z"/><path class="cls-7" d="M46.21,57.39a1,1,0,0,1,.22-.57c.1-.11.21-.1.34,0a.78.78,0,0,1,.32.37.5.5,0,0,1-.1.49.58.58,0,0,1-.53.2C46.29,57.81,46.21,57.61,46.21,57.39Z"/><path class="cls-7" d="M50.7,77.42l0-.13c.29-2.05-1.13-1.42-1.25-.7a.86.86,0,0,1,.39.88c-1.39-2.26-3.42,1.18-1.44.86-.26-.69.44-.82.75-.38a1.31,1.31,0,0,1,.08,1.42c-.54.85-1.48.23-1-.32a.53.53,0,0,0-.73.23,1.09,1.09,0,0,0,.26,1.19c1.32-.54,2.45-1,3.17-1.32a1,1,0,0,0,.17-.1,1.37,1.37,0,0,1,.21-1.1c.31-.44,1-.31.76.36a3.87,3.87,0,0,1,.62-.54l.18-.09A1.16,1.16,0,0,0,50.7,77.42Z"/><path class="cls-7" d="M56.93,58.24c.69.07.83-1.6,1-1.6a.31.31,0,0,1,.31.34C58.1,57.61,57.21,58.63,56.93,58.24Z"/><path class="cls-7" d="M55.72,57.47a1,1,0,1,1-1,1A1,1,0,0,1,55.72,57.47Z"/><path class="cls-6" d="M41.34,65.18a2.66,2.66,0,0,1,.15.89,5.16,5.16,0,0,1,0,1.26,1.16,1.16,0,0,1-.25.58c-.07.08-.09.1-.08.15s0,.17.06.25,0,.13-.12.22a5.89,5.89,0,0,1-.61.26c-.18.06-.24.09-.34-.2a7.63,7.63,0,0,1-.31-1.45,12.88,12.88,0,0,1-.08-1.5,2.17,2.17,0,0,1,.05-.56c0-.08.07-.12.13,0a5.54,5.54,0,0,1,.24.66,5.67,5.67,0,0,0,.24.64c.08.13.14.15.23.1a.65.65,0,0,0,.27-.31,2.42,2.42,0,0,0,.13-.48,1.7,1.7,0,0,1,.14-.45c.06-.12.13-.19.19-.06Zm-1.15-.84a.4.4,0,0,1,0-.47.82.82,0,0,1,.45-.41c.12,0,.15.18.13.37a.7.7,0,0,1-.17.5A.3.3,0,0,1,40.19,64.34Z"/><path class="cls-6" d="M44,76.17A19.14,19.14,0,0,1,43,78c-.26.46-2,3.65-2.68,3.55a11.69,11.69,0,0,0-2.59-.68c-.15,0-.19,0-.22,0s-.06.12.09.17.79.22,1,.32,0,.1-.22,0a9.59,9.59,0,0,0-1.17-.22c-.19,0-.24,0-.24.07s0,.09.12.16.67.13,1.31.33c0,0,0,0,0,0-.24,0-1.45-.21-1.69-.23s-.3.19,0,.3,1.31.21,1.56.28-1.06,0-1.62,0c-.2,0-.15.29.1.39.49.19,3.34.11,2.49.34-.26.07-1.21-.06-1.33.35,0,.06,0,.11.14.15a12.86,12.86,0,0,0,1.44,0c1.54.17,1.79-.76,2.59-1.67.51-.59,1.32-1.54,1.93-2.28.2-.24.39-.45.57-.64-.1-.39-.2-.88-.31-1.38S44,76.55,44,76.17Z"/><path class="cls-6" d="M62.43,60.28c-1.91,9.14.46,9.51,2.67,17.62a8.07,8.07,0,0,1,0,4.79A9.67,9.67,0,0,0,64.82,78C62.55,70.54,59.85,68.63,62.43,60.28Z"/><path class="cls-6" d="M63.31,61.42c6,5.76,7.3,12.5,3.69,19.76a13.57,13.57,0,0,0,.53-1.44c2.7-7.09.35-12.74-4.22-18.32ZM67,81.18c-.08.16-.16.33-.25.49a3.72,3.72,0,0,0,.25-.49Zm-.25.49a.41.41,0,0,1,0,.09c0,.11,0,.18-.17.17A.85.85,0,0,0,66.75,81.67Z"/><path class="cls-6" d="M63.5,64.38c.83,3.68,1.24,3.79,2.31,7a12.34,12.34,0,0,1,.79,5.3,18.77,18.77,0,0,0-1.18-5.16C64,67.62,64,68.6,63.5,64.38Z"/><path class="cls-6" d="M77.26,56.87c2.49,7.47,3.27,12.49-2.81,18.81a47.4,47.4,0,0,1-5.58,4.67c2.4-2.3,5.17-4.24,7.07-7C80.15,67.15,78.85,63.44,77.26,56.87Z"/><path class="cls-6" d="M76.89,58.45C70.66,66.91,74.3,69.69,71,76.69,73.67,69.14,70.31,65.61,76.89,58.45Z"/><path class="cls-6" d="M76.58,61.9c-.33,4,.13,7.78-2.48,11a2,2,0,0,0-.3.43h0a.79.79,0,0,1,.19-.51C76.57,68.64,75.38,66.11,76.58,61.9Z"/><path class="cls-11" d="M73.91,87.72c-.72-.54-1.4-1.12-2.12-1.69-.3-.24-.59-.5-.89-.75a36.52,36.52,0,0,0,.26,4l.81-.41C72.64,88.54,73.28,88.14,73.91,87.72Z"/><path class="cls-12" d="M29.48,86.1,29.7,86a13.36,13.36,0,0,1,1.91-1.08l.81-.39a25.11,25.11,0,0,1-5.16-1.61,26.16,26.16,0,0,1-4.34-2.08,52.71,52.71,0,0,0,2.83,5.68l.22.4L25.2,87a12.86,12.86,0,0,1-3.5-.2c-.46-.08-.94-.15-1.42-.25a9.36,9.36,0,0,0,4.16,4.3A42.41,42.41,0,0,0,29.53,93a16,16,0,0,1-.25-6Z"/><path class="cls-12" d="M47.89,94.92a.49.49,0,0,0-.36.21l0,0a4.84,4.84,0,0,0,0,2.47.21.21,0,0,1-.18.25,2.11,2.11,0,0,0,.61.85,1.21,1.21,0,0,0,.58.28,3.85,3.85,0,0,0,.44-2.65v0C48.7,95.69,48.38,94.88,47.89,94.92Z"/><path class="cls-12" d="M71.54,84.82c1,.85,1.93,1.72,2.95,2.51l.48.37.24.94a25.3,25.3,0,0,1,.5,4.22.41.41,0,0,0,0,.11,36.65,36.65,0,0,0,5.74-3.18c.9-.61,1.84-1.19,2.77-1.78a31.13,31.13,0,0,1-5.71-1.5l-.67-.23.33-.53A37.12,37.12,0,0,0,81.83,79a27.06,27.06,0,0,1-3.19,2.58A25.36,25.36,0,0,1,71.54,84.82Z"/><path class="cls-12" d="M51.68,92.74a62.2,62.2,0,0,1-12.74-1.61A23.06,23.06,0,0,1,33,89l-.39-.22a15.36,15.36,0,0,1-1.45-1l-.1,0A5.55,5.55,0,0,1,30,86.93a24.24,24.24,0,0,0,.55,6.39l.15.71q.13.61.3,1.23c6.74,3.79,14,7,21.79,7.34a33,33,0,0,0,9.19-.95,8.83,8.83,0,0,1,.93-2.82l.39-.67.31.52c.44.72.91,1.41,1.4,2.09.44-.15.89-.31,1.33-.48a85.88,85.88,0,0,0,8.56-4.06c0-.78.05-1.57,0-2.35v-.57a33.09,33.09,0,0,0-.51-5C67.68,92.16,59.24,93.15,51.68,92.74Z"/><path class="cls-11" d="M29.62,86.58a13.5,13.5,0,0,0-.87,4.25l-.09,0c-.6-.31-1.4-.45-1.91-.66-.72-.31-1.47-.62-2.21-.9-.35-.18-.69-.36-1-.55s-.58-.37-.86-.58-.6-.46-.9-.7-.7-.66-1.08-1l-.15-.14a.16.16,0,0,0-.13-.07l0,0h0c-.16-.14-.47,0-.33.24l.21.3a2.89,2.89,0,0,0,.61,1.11,13.88,13.88,0,0,0,2.8,2.78A7.82,7.82,0,0,0,27,92.47l.11,0a4.85,4.85,0,0,0,2.06.63.51.51,0,0,0,.43-.75.93.93,0,0,0-.11-.85v-.1a.29.29,0,0,0,0-.16c0-.42-.06-.84-.06-1.25a21.94,21.94,0,0,1,.24-3.44S29.63,86.53,29.62,86.58Z"/><path class="cls-11" d="M61.7,101c-7.47,1.88-24.06-1-30.06-6.77-.17-.78-.53-1.59-.7-2.28-.34-1.32-.54-2.66-1-4a.12.12,0,0,0-.23,0A15.43,15.43,0,0,0,30,91.79a16.32,16.32,0,0,0,.44,2.14.3.3,0,0,0,0,.21,1.32,1.32,0,0,0,.38,1.74c.76.41,1.6,1.08,2.45,1.44.45.29,1,.42,1.39.67a36.75,36.75,0,0,0,5.41,2.26A33.55,33.55,0,0,0,45.91,102c.75.16,1.54.32,2.35.41a19.39,19.39,0,0,0,3.64.46,26.21,26.21,0,0,0,3.07,0,12.77,12.77,0,0,0,4.34-.27,3.73,3.73,0,0,0,2-.39,1.74,1.74,0,0,0,.43-.09.9.9,0,0,0,.41-.7A.38.38,0,0,0,61.7,101Z"/><path class="cls-11" d="M84.7,87.51a13.39,13.39,0,0,0-2.22.86c-.92.25-1.82.7-2.7,1-1,.36-2.12.64-3.16,1a3.6,3.6,0,0,0-.38-2.06.34.34,0,0,0,0-.1c-.19-.57-.58-.78-1-1.17s-.92-.88-1.43-1.27a6.51,6.51,0,0,0-2.28-1.17.14.14,0,0,0-.16.09c-.24.72,1,1.36,1.49,1.68A18.17,18.17,0,0,1,74.41,88a.25.25,0,0,0-.37.15A7.7,7.7,0,0,0,74,90.25c-.06.8-.13,1.59-.22,2.39s-.15,1.29-.23,1.93l-.09.25c-.16.42-.35.83-.53,1.24a3.32,3.32,0,0,0-.12.32l-.14.07c-.81.41-8.49,4-8.49,4a.19.19,0,0,0,0,.19c.36.63,1.79.23,2.32.14A16,16,0,0,0,70.89,99c1.21-.6,2.46-1.22,3.64-1.89.56-.32,1-1.14.68-1.68.06-.45,0-.91.07-1.35,0-.24,0-.48,0-.72h0a7.27,7.27,0,0,0,2.06-1c.85-.53,1.72-1,2.61-1.42s1.83-1,2.7-1.55a5.56,5.56,0,0,0,1.56-1.22,6.55,6.55,0,0,0,.59-.45.17.17,0,0,0-.16-.29ZM74.51,88h0a2.94,2.94,0,0,0,.41.31,4.78,4.78,0,0,0,0,.54A4.52,4.52,0,0,0,74.51,88Z"/><path class="cls-7" d="M82,78.78c-1.49,1.47-8.94,4.87-11,5.6l-.85.3,0,.54A20.69,20.69,0,0,0,70.51,89c-9.46,4-28.34,3.51-37.21-.93a17.79,17.79,0,0,0,.52-3.41l0-.47-.54-.11h0a26.61,26.61,0,0,1-5.37-1.7,27.55,27.55,0,0,1-5.43-2.79l-.64-.45.34,1.14c.33.94.73,1.86,1.13,2.77.52,1.15,1,2.36,1.63,3.49a15.56,15.56,0,0,1-3.47-.37c-.52-.1-1-.21-1.55-.34l-.6-.16.28.73a9.64,9.64,0,0,0,4,4.81,24.12,24.12,0,0,0,6.1,2.62,21.68,21.68,0,0,0,.35,2.24l1,.68a44.39,44.39,0,0,0,21.66,6.72,30.79,30.79,0,0,0,9.13-.91l.49-.12c.77-1.13.75-1.26,1.05-1.65.44.29.44.43,1.26,1l.83-.27.48-.17a64.09,64.09,0,0,0,8.85-3.91l1-.54V95.76c0-.72,0-1.44-.07-2.14a26.19,26.19,0,0,0,5.55-3c1.25-.82,2.63-1.63,3.91-2.53l1.19-.91-.88,0a39.73,39.73,0,0,1-6.58-1.25c1.62-2.33,2.72-3.65,3.39-6.4l.27-1.32-.57.57ZM70.9,85.28h0c.3.25.59.51.89.75.72.57,1.4,1.15,2.12,1.69a9.27,9.27,0,0,1-2.8,1.2,29.62,29.62,0,0,1-.21-3.64ZM32.82,87.93h0a11.84,11.84,0,0,1-2.65-1.54,17.21,17.21,0,0,1,3.08-1.76c-.15,1.2-.19,2.12-.43,3.3Zm-8.38,2.91h0a9.36,9.36,0,0,1-4.16-4.3c.48.1,1,.17,1.42.25a12.86,12.86,0,0,0,3.5.2l.77-.12-.22-.4a52.71,52.71,0,0,1-2.83-5.68,26.16,26.16,0,0,0,4.34,2.08,25.11,25.11,0,0,0,5.16,1.61l-.81.39A13.36,13.36,0,0,0,29.7,86l-.22.15-.2.94a16,16,0,0,0,.25,6,42.41,42.41,0,0,1-5.09-2.19Zm50.47,2.47h0v.57c0,.78,0,1.57,0,2.35a85.88,85.88,0,0,1-8.56,4.06c-.44.17-.89.33-1.33.48l-1.79-1.3A12.76,12.76,0,0,1,62,101.65a33,33,0,0,1-9.19.95,49.2,49.2,0,0,1-21.92-6.72A42,42,0,0,1,30,86.93c8.7,7.87,35.21,7.59,44.42,1.38a33.09,33.09,0,0,1,.51,5Zm3.27-7.56h0l-.33.53.67.23A31.13,31.13,0,0,0,84.23,88c-.93.59-1.87,1.17-2.77,1.78A36.2,36.2,0,0,1,75.72,93a.41.41,0,0,1,0-.11,25.3,25.3,0,0,0-.5-4.22L75,87.7l-.48-.37c-1-.79-2-1.66-2.95-2.51a95.12,95.12,0,0,0,9.74-4.52C80.4,82.7,79.56,83.55,78.18,85.75Z"/><path class="cls-7" d="M73,92.36c.38,0,.73.37.78.9s-.21,1-.59,1-.73-.37-.78-.9S72.64,92.4,73,92.36Z"/><path class="cls-7" d="M32,92c.38,0,.73.36.79.89s-.22,1-.6,1-.73-.36-.78-.89S31.59,92,32,92Z"/><polygon class="cls-8" points="36.18 96.95 37.51 92.57 38.68 92.92 38.08 94.92 38.09 94.93 39.48 93.17 40.68 93.53 39.19 95.3 39.39 97.93 38.12 97.54 38.03 95.12 38.02 95.11 37.35 97.31 36.18 96.95"/><path class="cls-8" d="M41.11,98.32l1.56-4.4,1.87.28.21,4.66-1.26-.19v-.78l-.89-.13-.23.75-1.26-.19Zm2.38-1.47V94.94h0l-.56,1.82Z"/><path class="cls-8" d="M46.55,99l.3-4.57,1.59.11a1.74,1.74,0,0,1,1.19.49A1.47,1.47,0,0,1,50,96.22a1.46,1.46,0,0,1-.55,1.1,1.83,1.83,0,0,1-1.24.33l-.35,0-.09,1.48L46.55,99ZM48,95.56l-.07,1h.15a.72.72,0,0,0,.42-.08.44.44,0,0,0,.2-.39.48.48,0,0,0-.15-.43.84.84,0,0,0-.42-.14Z"/><path class="cls-8" d="M51.43,99.32l.86-4.58,1.89,0,.93,4.58H53.84l-.12-.77h-.9l-.11.77Zm2.12-1.81-.3-1.89h0L53,97.51Z"/><path class="cls-8" d="M57.94,96.83a1.65,1.65,0,0,0,.26.89.56.56,0,0,0,1-.08,1.72,1.72,0,0,0,.11-.92,1.64,1.64,0,0,0-.26-.88.54.54,0,0,0-.5-.23.55.55,0,0,0-.46.31,1.6,1.6,0,0,0-.11.91Zm2.59-.18a2.88,2.88,0,0,1-.31,1.71,1.95,1.95,0,0,1-2.95.24A2.91,2.91,0,0,1,56.68,97a3.2,3.2,0,0,1,.3-1.68A1.92,1.92,0,0,1,60,95a3.27,3.27,0,0,1,.57,1.61Z"/><polygon class="cls-8" points="62.54 98.7 61.7 94.2 62.9 93.98 63.28 96.03 63.3 96.03 63.72 93.82 64.96 93.59 64.45 95.85 65.83 98.09 64.53 98.33 63.33 96.22 63.32 96.23 63.74 98.48 62.54 98.7"/><polygon class="cls-8" points="67.67 97.65 66.34 93.27 68.56 92.59 68.87 93.61 67.82 93.93 68.01 94.56 68.93 94.28 69.25 95.3 68.32 95.58 68.53 96.27 69.6 95.95 69.91 96.97 67.67 97.65"/><path class="cls-13" d="M.82,42.26a2,2,0,0,0,0,1.11.79.79,0,0,0-.83.68A1.16,1.16,0,0,0,.6,45.31l7.81,4.92a1.34,1.34,0,0,0,.37.17.88.88,0,0,0,1-.71,1.07,1.07,0,0,0-.56-1.16L7.13,47.21a2.49,2.49,0,0,0,1-1.52,3.2,3.2,0,0,0-1.52-3.42L4.24,40.75a2.44,2.44,0,0,0-.81-.37A2.17,2.17,0,0,0,.82,42.26Zm3,.44,1.93,1.2a1.21,1.21,0,0,1,.63,1.31.93.93,0,0,1-1.13.72.72.72,0,0,1-.24-.1L2.86,44.47a1.2,1.2,0,0,1-.6-1.37.81.81,0,0,1,1.06-.62A2.19,2.19,0,0,1,3.86,42.7Z"/><path class="cls-13" d="M6.15,29a1.16,1.16,0,0,0,.38,1.36l4.24,4.08a.86.86,0,0,0,.13.14,1.8,1.8,0,0,1,.51,2l-.11-.1L9.87,35a2.39,2.39,0,0,0-.69-.48,2.37,2.37,0,0,0-3.29,1.3,3.93,3.93,0,0,0-.26.8l-1-1a1.3,1.3,0,0,0-.41-.28A.82.82,0,0,0,3,35.73a1.17,1.17,0,0,0,.39,1.34l2.95,2.87.12.14L8,41.52a3.34,3.34,0,0,0,.89.64,2.5,2.5,0,0,0,3.34-1.49,3.34,3.34,0,0,0,.06-2.86,5.78,5.78,0,0,0,.36-.61,3.91,3.91,0,0,0,.24-.76,1.74,1.74,0,0,0,.26.15.82.82,0,0,0,1.13-.39,1.18,1.18,0,0,0-.38-1.35l-6.21-6a1.54,1.54,0,0,0-.42-.28A.82.82,0,0,0,6.15,29Zm2.51,7.51.77.72a1,1,0,0,0-.22.31,1,1,0,0,0,.5,1.4,1.56,1.56,0,0,0,1.17-.06,1.43,1.43,0,0,1,0,1.13.9.9,0,0,1-1.21.49,1.29,1.29,0,0,1-.36-.26l-1.8-1.76a1.5,1.5,0,0,1-.39-1.69.88.88,0,0,1,1.21-.51A1.07,1.07,0,0,1,8.66,36.48Z"/><path class="cls-13" d="M17.44,24a.66.66,0,0,0,0,.84,1.54,1.54,0,0,1,.18,1.86h0a2.79,2.79,0,0,0-1-1.43,3,3,0,0,0-4.36.55c-.83,1.16.62,2.21,1.46,1.05.4-.56,1-.62,1.74-.09a1.1,1.1,0,0,1,.42.61,2.75,2.75,0,0,0-1.71,1.09,3,3,0,0,0-.49.94l-2.88-4.14,1.65-2.27a.84.84,0,0,0-.08-1.25.68.68,0,0,0-1,.12L8.17,26.36a.84.84,0,0,0,.07,1.25.69.69,0,0,0,1-.14l.38-.53,4.59,6.57a1.14,1.14,0,0,0,.23.25.83.83,0,0,0,1.17-.27,1,1,0,0,0,0-1.19v0A3,3,0,0,0,17.55,31a3.62,3.62,0,0,0,.68-2.74,2.33,2.33,0,0,0,.53-.55,3.11,3.11,0,0,0-.24-3.82.68.68,0,0,0-.12-.12.7.7,0,0,0-1,.26Zm-1.19,6.18c-.26.36-.57.45-.8.29a.8.8,0,0,1-.13-.13.82.82,0,0,1,.08-1,1.55,1.55,0,0,1,1.14-.57A1.82,1.82,0,0,1,16.25,30.22Z"/><path class="cls-13" d="M23.41,18.74c.63,1.48.71,2.7.14,3.24a.46.46,0,0,1-.71,0,2.19,2.19,0,0,1-.32-.54l-2.78-6.38a1.72,1.72,0,0,0-.29-.47.79.79,0,0,0-1.18,0A1.27,1.27,0,0,0,18,16a2.12,2.12,0,0,0-1.72.64,2.87,2.87,0,0,0-.75,3.22l2.35,5.36a3,3,0,0,0,.49.77,2.22,2.22,0,0,0,3.22,0,3.08,3.08,0,0,0,.9-2.09,2.31,2.31,0,0,0,2-.67c1.31-1.23,1.16-3.13.2-5.21a.72.72,0,0,0-.16-.24.65.65,0,0,0-1,0,.81.81,0,0,0-.15,1Zm-2.81,5.6a.69.69,0,0,1-1-.05,1.59,1.59,0,0,1-.27-.43l-2-4.57a1.24,1.24,0,0,1,.18-1.43,1,1,0,0,1,1.39,0,1,1,0,0,1,.14.21L20.7,22C21.26,23.29,21.05,23.92,20.6,24.34Z"/><path class="cls-13" d="M82.63,14.9l-3.42,2.93a2.89,2.89,0,0,0-.61.72,1.92,1.92,0,0,0,.91,2.68c1.14.65,2.55.62,4.36-1A.83.83,0,0,0,84,20a.67.67,0,0,0-.3-.93.79.79,0,0,0-.94.13c-1.15,1-1.9,1.09-2.39.8a.37.37,0,0,1-.14-.54,1.33,1.33,0,0,1,.26-.29l4.28-3.64a2.4,2.4,0,0,0,.57-.67,1.94,1.94,0,0,0-.8-2.73,3.1,3.1,0,0,0-2.31-.31,2,2,0,0,0-1.14-1.66,3.7,3.7,0,0,0-4.55.59L72.87,14c-.72.63-1.34.9-1.69.7-.68-.39.68-1.37.77-1.47a.85.85,0,0,0,.15-.18.67.67,0,0,0-.35-.88.76.76,0,0,0-.89.07C69.14,13.69,69,15.19,70.42,16s2.38.47,3.73-.7l3.5-3c.87-.75,1.6-1,2-.73s.44.81-.31,1.46l-4.68,4a1.37,1.37,0,0,0-.31.35.82.82,0,0,0,.36,1.14,1.12,1.12,0,0,0,1.31-.16l4.89-4.15c.87-.73,1.57-1,2-.75S83.39,14.25,82.63,14.9Z"/><path class="cls-13" d="M88.38,24.61a3.77,3.77,0,0,1-4.25-.8,1.47,1.47,0,0,1-.27-2.2,1.59,1.59,0,0,1,2.48,0,2.13,2.13,0,0,0,.52,1,1.12,1.12,0,0,0,1.61-.07,1,1,0,0,0,0-1.39,1,1,0,0,1-.07-1.52,1.22,1.22,0,0,1,1.84-.15.87.87,0,0,1,.21,1,1,1,0,0,0,.07,1.27.85.85,0,0,0,1.19,0c.93-.87.75-2.35-.34-3.38a3.17,3.17,0,0,0-4.41,0,2,2,0,0,0-.56,1.28,3.13,3.13,0,0,0-4,.7c-1.11,1.18-.89,3,.71,4.55a5.23,5.23,0,0,0,6.18.93.86.86,0,0,0,.23-.17.65.65,0,0,0-.06-.95A.84.84,0,0,0,88.38,24.61Z"/><path class="cls-13" d="M98.21,26.67a1.19,1.19,0,0,0-1.37-.27l-2.59.89a2.33,2.33,0,0,1-2.34-.38c-.39-.49-.33-.86,0-1.09a1.35,1.35,0,0,1,.36-.19l2.71-.93a1.53,1.53,0,0,0,.44-.24.82.82,0,0,0,.17-1.19A1.19,1.19,0,0,0,94.17,23l-2.89,1a2.63,2.63,0,0,0-.78.41c-.94.74-1,2-.1,3.13a2.57,2.57,0,0,0,1,.75l-2.72.94a1.53,1.53,0,0,0-.44.24.82.82,0,0,0-.17,1.19,1.2,1.2,0,0,0,1.38.27l8.15-2.82a1.52,1.52,0,0,0,.44-.23A.82.82,0,0,0,98.21,26.67Z"/><path class="cls-13" d="M102.73,35.71l-2.66-5.18c-.34-.6-.81-.68-1.16-.5a.68.68,0,0,0-.31.94l.86,1.66-7.94,1.12a.8.8,0,0,0-.33.1A.82.82,0,0,0,90.91,35a1,1,0,0,0,1,.56l8.41-1.18.9,1.74a.83.83,0,0,0,1.14.49A.67.67,0,0,0,102.73,35.71Z"/><path class="cls-13" d="M106.27,47a1.15,1.15,0,0,0-1.17-.78l-5.87-.37a.43.43,0,0,0-.19,0,1.8,1.8,0,0,1-1.65-1.16h.14l2,.12a2.58,2.58,0,0,0,.84-.09A2.36,2.36,0,0,0,102,41.6a3.78,3.78,0,0,0-.32-.77l1.46.1a1.57,1.57,0,0,0,.5,0,.82.82,0,0,0,.61-1,1.19,1.19,0,0,0-1.17-.77L99,38.8l-.18,0-2.09-.13a3.55,3.55,0,0,0-1.09.09A2.48,2.48,0,0,0,94.06,42a3.28,3.28,0,0,0,1.8,2.22A4.67,4.67,0,0,0,96,45a3.5,3.5,0,0,0,.31.74,1.36,1.36,0,0,0-.3,0,.82.82,0,0,0-.61,1,1.2,1.2,0,0,0,1.17.78l8.61.53a1.57,1.57,0,0,0,.5-.05.83.83,0,0,0,.61-1Zm-6.78-4.09-1-.06a1.27,1.27,0,0,0,0-.38,1,1,0,0,0-1.29-.73c-.35.09-.54.32-.85.8a1.41,1.41,0,0,1-.74-.86.89.89,0,0,1,.6-1.15,1.43,1.43,0,0,1,.44,0l2.52.17a1.54,1.54,0,0,1,1.39,1,.89.89,0,0,1-.6,1.18A1.51,1.51,0,0,1,99.49,42.92Z"/><path class="cls-14" d="M37.2,7.65l.39,4.49a3,3,0,0,0,.23.91,1.92,1.92,0,0,0,2.71.82c1.2-.55,2-1.7,1.69-4.14a1.81,1.81,0,0,0-.06-.27.68.68,0,0,0-.93-.3.78.78,0,0,0-.45.84c.11,1.5-.22,2.18-.74,2.41a.36.36,0,0,1-.52-.19,1.08,1.08,0,0,1-.08-.39L39,6.23a2.38,2.38,0,0,0-.22-.85,1.94,1.94,0,0,0-2.69-.94,3.13,3.13,0,0,0-1.59,1.7,2.06,2.06,0,0,0-2,0,3.69,3.69,0,0,0-2.17,4l.5,4.93c.09.95-.05,1.61-.41,1.78-.71.32-.73-1.35-.75-1.49a.61.61,0,0,0-1-.45.74.74,0,0,0-.47.77c.18,2.23,1.3,3.25,2.82,2.55s1.76-1.66,1.6-3.44l-.42-4.61c-.1-1.14.14-1.86.58-2.06s.92.1,1,1.1l.52,6.12a1.67,1.67,0,0,0,.1.45.82.82,0,0,0,1.14.37A1.11,1.11,0,0,0,36.17,15l-.53-6.4c-.09-1.13.11-1.85.55-2.06S37.12,6.66,37.2,7.65Z"/><path class="cls-14" d="M49.28,8.75A1.8,1.8,0,0,1,48,10.28a.7.7,0,0,1,0-.14l.72-4.72a2.37,2.37,0,0,0,0-.84,2.69,2.69,0,0,0-3.3-1.9,3.31,3.31,0,0,0-2.77,2.87l-.74,4.82a3.7,3.7,0,0,0,0,1.1A2.49,2.49,0,0,0,45,13.35a3.3,3.3,0,0,0,2.37-1.59,3.58,3.58,0,0,0,.71-.06,3.15,3.15,0,0,0,2.62-2.79,1.36,1.36,0,0,0,0-.29.64.64,0,0,0-.79-.54.76.76,0,0,0-.65.67Zm-4.46,3.1a.91.91,0,0,1-1.1-.71,1.32,1.32,0,0,1,0-.44l.8-5.16a1.54,1.54,0,0,1,1.18-1.38.92.92,0,0,1,1.12.7,1.34,1.34,0,0,1,0,.4l-.58,3.8a.92.92,0,0,0-.37,0A1,1,0,0,0,45,10.27c.06.36.27.56.72.92A1.43,1.43,0,0,1,44.82,11.85Z"/><path class="cls-14" d="M56.6,8.58A3.75,3.75,0,0,1,53,11c-1.11,0-1.73-.53-1.75-1.35,0-1.07.59-1.69,1.77-1.73a2.13,2.13,0,0,0,1.07.32,1.11,1.11,0,0,0,1.08-1.19,1,1,0,0,0-1-1,1,1,0,0,1-1.12-1,1.23,1.23,0,0,1,1.19-1.41.87.87,0,0,1,.83.53c.19.59.54.86,1,.85a.86.86,0,0,0,.84-.85,2.31,2.31,0,0,0-2.65-2.14A3.18,3.18,0,0,0,51.14,5.2a2,2,0,0,0,.51,1.3,3.15,3.15,0,0,0-2.33,3.34c0,1.62,1.53,2.78,3.73,2.71a5.26,5.26,0,0,0,5-3.74.69.69,0,0,0-.68-.9A.84.84,0,0,0,56.6,8.58Z"/><path class="cls-14" d="M66.48,1.37A.64.64,0,1,0,65.31.86c-.26.53-.66.79-1,.72a.45.45,0,0,1-.39-.52.88.88,0,0,1,0-.15.64.64,0,0,0-.48-.9.62.62,0,0,0-.7.39,1.24,1.24,0,0,0-.11.36,1.63,1.63,0,0,0,1.38,2,2.35,2.35,0,0,0,2.46-1.41ZM61,10.28a2.19,2.19,0,0,1-2,1.19.61.61,0,0,1-.51-.75,1,1,0,0,1,.14-.38L62.1,4.4a1.68,1.68,0,0,0,.17-.47.81.81,0,0,0-.66-1,1.19,1.19,0,0,0-1.22.7l-3.54,6.1a2.56,2.56,0,0,0-.31.83,2,2,0,0,0,1.76,2.37,3.42,3.42,0,0,0,2.38-.63,2.27,2.27,0,0,0,1.82,1.39c1.77.32,3.2-1,4.31-3a.73.73,0,0,0,.1-.25.64.64,0,0,0-.56-.74.89.89,0,0,0-.92.45c-.83,1.42-1.75,2.21-2.5,2.07a.47.47,0,0,1-.44-.58,1,1,0,0,1,.12-.34l3.58-6.17a1.52,1.52,0,0,0,.17-.46.83.83,0,0,0-.7-1,1.21,1.21,0,0,0-1.24.7Z"/><path class="cls-15" d="M.85,42.14a2,2,0,0,0,0,1.11.78.78,0,0,0-.83.68,1.16,1.16,0,0,0,.57,1.26l7.81,4.92a1.44,1.44,0,0,0,.36.17.87.87,0,0,0,1-.71,1.08,1.08,0,0,0-.55-1.17L7.16,47.09a2.49,2.49,0,0,0,1-1.52,3.2,3.2,0,0,0-1.52-3.42L4.27,40.63a2.44,2.44,0,0,0-.81-.37A2.16,2.16,0,0,0,.85,42.14Zm3,.44,1.93,1.2a1.21,1.21,0,0,1,.63,1.31.94.94,0,0,1-1.13.72.72.72,0,0,1-.24-.1L2.89,44.35A1.2,1.2,0,0,1,2.29,43a.8.8,0,0,1,1-.62A1.79,1.79,0,0,1,3.89,42.58Z"/><path class="cls-15" d="M6.18,28.85a1.14,1.14,0,0,0,.38,1.35l4.24,4.08a.44.44,0,0,0,.13.14,1.8,1.8,0,0,1,.5,2l-.1-.1L9.9,34.9a2.56,2.56,0,0,0-.69-.47,2.36,2.36,0,0,0-3.29,1.3,4.06,4.06,0,0,0-.26.79l-1-1a1.3,1.3,0,0,0-.41-.28.8.8,0,0,0-1.13.39A1.18,1.18,0,0,0,3.45,37l3,2.87.12.13L8,41.4a3.34,3.34,0,0,0,.89.64,2.5,2.5,0,0,0,3.34-1.49,3.31,3.31,0,0,0,.05-2.86,4.62,4.62,0,0,0,.37-.62,3.53,3.53,0,0,0,.24-.76,1.22,1.22,0,0,0,.26.16.82.82,0,0,0,1.13-.39,1.18,1.18,0,0,0-.38-1.35l-6.21-6a1.34,1.34,0,0,0-.42-.28.82.82,0,0,0-1.13.39Zm2.51,7.51.77.72a1.25,1.25,0,0,0-.23.31,1.07,1.07,0,0,0,.51,1.4,1.56,1.56,0,0,0,1.17-.06,1.43,1.43,0,0,1,0,1.13.9.9,0,0,1-1.21.49,1.29,1.29,0,0,1-.36-.26L7.54,38.33a1.52,1.52,0,0,1-.38-1.69.88.88,0,0,1,1.21-.51A1.07,1.07,0,0,1,8.69,36.36Z"/><path class="cls-15" d="M17.47,24a.66.66,0,0,0,0,.84,1.56,1.56,0,0,1,.18,1.86h0a2.79,2.79,0,0,0-1-1.43,3,3,0,0,0-4.36.55c-.83,1.16.62,2.21,1.45,1.05.41-.56,1-.62,1.75-.09a1.15,1.15,0,0,1,.42.61,2.71,2.71,0,0,0-1.71,1.09,3,3,0,0,0-.49.94L10.8,25.33l1.65-2.27a.84.84,0,0,0-.08-1.25.68.68,0,0,0-1,.12L8.2,26.36a.84.84,0,0,0,.07,1.25.69.69,0,0,0,1-.15l.38-.52,4.59,6.57a1.14,1.14,0,0,0,.23.25.83.83,0,0,0,1.16-.27,1,1,0,0,0,0-1.19v0A3,3,0,0,0,17.58,31a3.58,3.58,0,0,0,.68-2.73,2.54,2.54,0,0,0,.53-.55,3.11,3.11,0,0,0-.24-3.82.68.68,0,0,0-.12-.12.69.69,0,0,0-1,.26Zm-1.19,6.18c-.26.36-.57.45-.8.28a.49.49,0,0,1-.13-.12.82.82,0,0,1,.08-1,1.55,1.55,0,0,1,1.14-.57A1.86,1.86,0,0,1,16.28,30.22Z"/><path class="cls-15" d="M23.44,18.62c.63,1.48.71,2.7.14,3.24a.46.46,0,0,1-.71,0,1.94,1.94,0,0,1-.32-.53l-2.78-6.38a1.72,1.72,0,0,0-.29-.47.79.79,0,0,0-1.18,0A1.26,1.26,0,0,0,18,15.84a2.16,2.16,0,0,0-1.72.65,2.85,2.85,0,0,0-.75,3.21l2.35,5.36a2.88,2.88,0,0,0,.49.78,2.22,2.22,0,0,0,3.22,0,3.08,3.08,0,0,0,.9-2.09,2.31,2.31,0,0,0,2-.67c1.31-1.23,1.16-3.13.2-5.21a.72.72,0,0,0-.16-.24.66.66,0,0,0-1,0,.82.82,0,0,0-.15,1Zm-2.81,5.59a.69.69,0,0,1-1,0,1.76,1.76,0,0,1-.27-.43l-2-4.58a1.22,1.22,0,0,1,.18-1.42,1,1,0,0,1,1.39,0,.77.77,0,0,1,.14.21l1.72,3.94C21.29,23.17,21.08,23.8,20.63,24.21Z"/><path class="cls-15" d="M37.35,7.53,37.74,12a3.11,3.11,0,0,0,.23.91,1.92,1.92,0,0,0,2.71.82c1.2-.55,2-1.71,1.69-4.15a1.11,1.11,0,0,0-.07-.26.67.67,0,0,0-.92-.3.78.78,0,0,0-.45.84c.11,1.5-.22,2.18-.74,2.41a.37.37,0,0,1-.52-.19,1.08,1.08,0,0,1-.08-.39l-.47-5.6a2.38,2.38,0,0,0-.22-.85,1.94,1.94,0,0,0-2.69-.94A3.13,3.13,0,0,0,34.62,6a2.06,2.06,0,0,0-2,0,3.69,3.69,0,0,0-2.17,4l.5,4.93c.09,1-.05,1.61-.41,1.78-.71.32-.73-1.35-.75-1.49a.61.61,0,0,0-1-.45.74.74,0,0,0-.47.77c.18,2.23,1.3,3.25,2.82,2.55s1.76-1.66,1.6-3.44l-.42-4.61c-.1-1.14.14-1.86.58-2.06s.92.1,1,1.1l.52,6.12a1.42,1.42,0,0,0,.1.45.82.82,0,0,0,1.13.37,1.11,1.11,0,0,0,.64-1.15l-.53-6.4c-.09-1.13.11-1.86.55-2.06S37.27,6.54,37.35,7.53Z"/><path class="cls-15" d="M49.3,8.62A1.79,1.79,0,0,1,48,10.16.7.7,0,0,1,48,10l.72-4.72a2.69,2.69,0,0,0,0-.85,2.69,2.69,0,0,0-3.3-1.89,3.29,3.29,0,0,0-2.77,2.86l-.74,4.83a3.7,3.7,0,0,0,0,1.1,2.48,2.48,0,0,0,3.13,1.88,3.3,3.3,0,0,0,2.38-1.59,3.58,3.58,0,0,0,.71-.06,3.15,3.15,0,0,0,2.62-2.79,1.33,1.33,0,0,0,0-.29A.65.65,0,0,0,50,8a.77.77,0,0,0-.65.66Zm-4.45,3.11a.91.91,0,0,1-1.1-.71,1.32,1.32,0,0,1,0-.44l.8-5.17A1.53,1.53,0,0,1,45.74,4a.92.92,0,0,1,1.12.7,1.34,1.34,0,0,1,0,.4l-.58,3.8a1.14,1.14,0,0,0-.37,0,1.05,1.05,0,0,0-.86,1.22c.06.35.27.56.72.92A1.43,1.43,0,0,1,44.85,11.73Z"/><path class="cls-15" d="M56.89,9a3.78,3.78,0,0,1-3.72,2.2c-1.11,0-1.69-.64-1.66-1.46a1.59,1.59,0,0,1,1.88-1.61,2.1,2.1,0,0,0,1,.39A1.13,1.13,0,0,0,55.6,7.35a1,1,0,0,0-.94-1A1,1,0,0,1,53.6,5.23,1.23,1.23,0,0,1,54.88,3.9a.88.88,0,0,1,.8.58c.15.61.48.9.89.91a.86.86,0,0,0,.9-.79A2.31,2.31,0,0,0,55,2.29a3.17,3.17,0,0,0-3.31,2.92,2,2,0,0,0,.43,1.33,3.14,3.14,0,0,0-2.55,3.18c-.06,1.62,1.34,2.87,3.54,2.94a5.22,5.22,0,0,0,5.25-3.39A.94.94,0,0,0,58.39,9a.65.65,0,0,0-.68-.67A.81.81,0,0,0,56.89,9Z"/><path class="cls-15" d="M66.63,1.37a.62.62,0,0,0-.48-.89.62.62,0,0,0-.69.38c-.26.53-.66.79-1,.72A.46.46,0,0,1,64,1.05a1.21,1.21,0,0,1,0-.14.64.64,0,0,0-.49-.9A.62.62,0,0,0,62.9.4a1.18,1.18,0,0,0-.11.35,1.64,1.64,0,0,0,1.38,2,2.35,2.35,0,0,0,2.46-1.41Zm-5.48,8.91a2.19,2.19,0,0,1-2,1.19.61.61,0,0,1-.51-.75.94.94,0,0,1,.14-.38l3.44-5.95a1.52,1.52,0,0,0,.17-.46.83.83,0,0,0-.66-1,1.21,1.21,0,0,0-1.22.71L57,9.73a2.59,2.59,0,0,0-.31.82,2,2,0,0,0,1.76,2.38,3.42,3.42,0,0,0,2.38-.63,2.27,2.27,0,0,0,1.81,1.39c1.78.32,3.21-1,4.32-3a1,1,0,0,0,.1-.25.64.64,0,0,0-.56-.74.87.87,0,0,0-.92.45c-.83,1.42-1.75,2.21-2.5,2.07a.48.48,0,0,1-.44-.58,1,1,0,0,1,.12-.34l3.58-6.17a1.75,1.75,0,0,0,.17-.46.85.85,0,0,0-.7-1,1.23,1.23,0,0,0-1.24.71Z"/><path class="cls-15" d="M82.66,14.9l-3.42,2.93a3,3,0,0,0-.61.71,1.92,1.92,0,0,0,.91,2.68c1.14.66,2.55.63,4.36-1a1.12,1.12,0,0,0,.17-.21.67.67,0,0,0-.3-.93.79.79,0,0,0-.94.13c-1.15,1-1.9,1.08-2.39.8a.37.37,0,0,1-.15-.54,1.41,1.41,0,0,1,.27-.29l4.28-3.64a2.4,2.4,0,0,0,.57-.67,1.94,1.94,0,0,0-.81-2.74,3.12,3.12,0,0,0-2.3-.3,2,2,0,0,0-1.14-1.66,3.7,3.7,0,0,0-4.55.59L72.9,14c-.72.63-1.35.9-1.69.7-.68-.39.68-1.37.77-1.47a.85.85,0,0,0,.15-.18.67.67,0,0,0-.35-.88.76.76,0,0,0-.89.07C69.17,13.68,69,15.19,70.45,16s2.38.47,3.73-.7l3.5-3c.87-.75,1.6-1,2-.73s.45.81-.3,1.46l-4.68,4a1.22,1.22,0,0,0-.31.35.8.8,0,0,0,.36,1.13,1.11,1.11,0,0,0,1.31-.15L81,14.19c.87-.73,1.57-1,2-.75S83.42,14.25,82.66,14.9Z"/><path class="cls-15" d="M88.53,24.61a3.77,3.77,0,0,1-4.25-.81A1.46,1.46,0,0,1,84,21.61a1.58,1.58,0,0,1,2.47,0,2.29,2.29,0,0,0,.53,1,1.12,1.12,0,0,0,1.61-.07,1,1,0,0,0,0-1.4,1,1,0,0,1-.07-1.52,1.23,1.23,0,0,1,1.84-.14.87.87,0,0,1,.21,1,1,1,0,0,0,.07,1.27.85.85,0,0,0,1.19,0c.93-.87.75-2.35-.34-3.38a3.18,3.18,0,0,0-4.42,0,2.06,2.06,0,0,0-.55,1.28,3.13,3.13,0,0,0-4,.7c-1.11,1.18-.89,3,.71,4.55a5.24,5.24,0,0,0,6.18.93,1.06,1.06,0,0,0,.23-.17.66.66,0,0,0-.06-.95A.84.84,0,0,0,88.53,24.61Z"/><path class="cls-15" d="M98.48,27.22a1.16,1.16,0,0,0-1.35-.32l-2.63.78a2.36,2.36,0,0,1-2.32-.49c-.37-.51-.29-.87,0-1.09a1.28,1.28,0,0,1,.37-.18l2.75-.81a1.51,1.51,0,0,0,.44-.22A.82.82,0,0,0,96,23.71a1.2,1.2,0,0,0-1.37-.33l-2.92.85a2.7,2.7,0,0,0-.8.38,2.1,2.1,0,0,0-.23,3.12,2.56,2.56,0,0,0,1,.8l-2.76.82a1.72,1.72,0,0,0-.45.22.81.81,0,0,0-.21,1.18,1.18,1.18,0,0,0,1.36.33l8.27-2.46a1.72,1.72,0,0,0,.45-.22A.81.81,0,0,0,98.48,27.22Z"/><path class="cls-15" d="M102.76,35.83l-2.67-5.18c-.33-.6-.8-.68-1.15-.51a.7.7,0,0,0-.31.95l.85,1.65-7.93,1.13a.8.8,0,0,0-.33.1.82.82,0,0,0-.28,1.16,1,1,0,0,0,1,.56l8.41-1.18.9,1.74a.83.83,0,0,0,1.14.49A.67.67,0,0,0,102.76,35.83Z"/><path class="cls-15" d="M106.3,47.13a1.16,1.16,0,0,0-1.17-.79L99.26,46a.43.43,0,0,0-.19,0,1.8,1.8,0,0,1-1.65-1.16h.14l2,.12a2.58,2.58,0,0,0,.84-.09A2.36,2.36,0,0,0,102,41.72a3.56,3.56,0,0,0-.32-.77l1.46.1a1.57,1.57,0,0,0,.5,0,.83.83,0,0,0,.61-1,1.2,1.2,0,0,0-1.17-.77L99,38.92l-.19,0-2.08-.13a3.62,3.62,0,0,0-1.1.09,2.5,2.5,0,0,0-1.57,3.3,3.33,3.33,0,0,0,1.81,2.22,3.81,3.81,0,0,0,.12.7,3.5,3.5,0,0,0,.31.74,1.36,1.36,0,0,0-.3,0,.82.82,0,0,0-.61,1,1.2,1.2,0,0,0,1.17.78l8.61.53a1.57,1.57,0,0,0,.5-.05.83.83,0,0,0,.61-1ZM99.52,43l-1-.05a1.27,1.27,0,0,0,0-.38,1,1,0,0,0-1.29-.73c-.35.09-.54.32-.85.8a1.41,1.41,0,0,1-.74-.86.88.88,0,0,1,.6-1.15,1.18,1.18,0,0,1,.44,0l2.52.17a1.51,1.51,0,0,1,1.38,1A.88.88,0,0,1,99.91,43,1.21,1.21,0,0,1,99.52,43Z"/><path class="cls-13" d="M1,41.54a2,2,0,0,0,0,1.1.8.8,0,0,0-.83.69,1.13,1.13,0,0,0,.57,1.25L8.56,49.5a1.16,1.16,0,0,0,.36.17A.87.87,0,0,0,10,49,1.07,1.07,0,0,0,9.4,47.8L7.28,46.48a2.49,2.49,0,0,0,1-1.51,3.2,3.2,0,0,0-1.51-3.43L4.39,40a2.84,2.84,0,0,0-.81-.36A2.16,2.16,0,0,0,1,41.54ZM4,42l1.93,1.2a1.21,1.21,0,0,1,.64,1.3.94.94,0,0,1-1.13.73.91.91,0,0,1-.25-.11L3,43.74a1.21,1.21,0,0,1-.59-1.37.81.81,0,0,1,1-.62A2.12,2.12,0,0,1,4,42Z"/><path class="cls-13" d="M6.42,28.24A1.16,1.16,0,0,0,6.8,29.6L11,33.68a.62.62,0,0,0,.14.14,1.79,1.79,0,0,1,.5,2,.32.32,0,0,1-.1-.1L10.14,34.3a2.6,2.6,0,0,0-.69-.48,2.36,2.36,0,0,0-3.29,1.31,3.85,3.85,0,0,0-.26.79l-1.05-1a1.66,1.66,0,0,0-.41-.28A.82.82,0,0,0,3.31,35a1.2,1.2,0,0,0,.38,1.35l3,2.86.12.14,1.5,1.45a3.58,3.58,0,0,0,.9.63,2.49,2.49,0,0,0,3.33-1.49,3.27,3.27,0,0,0,.06-2.86,3.27,3.27,0,0,0,.36-.61,3.22,3.22,0,0,0,.25-.76,1.83,1.83,0,0,0,.26.16.81.81,0,0,0,1.13-.4,1.2,1.2,0,0,0-.38-1.35L8,28.14a1.72,1.72,0,0,0-.41-.29.82.82,0,0,0-1.13.39Zm2.51,7.51.76.73a1.17,1.17,0,0,0-.22.3,1.05,1.05,0,0,0,.51,1.4,1.53,1.53,0,0,0,1.16-.06,1.35,1.35,0,0,1,0,1.13.89.89,0,0,1-1.2.49,1.29,1.29,0,0,1-.36-.26L7.78,37.73A1.54,1.54,0,0,1,7.39,36a.88.88,0,0,1,1.22-.51A1.22,1.22,0,0,1,8.93,35.75Z"/><path class="cls-13" d="M18.12,23.4a.69.69,0,0,0-.06.85,1.54,1.54,0,0,1,.11,1.86h0a2.73,2.73,0,0,0-.95-1.47,2.93,2.93,0,0,0-4.37.37c-.89,1.12.51,2.23,1.4,1.11.44-.55,1.06-.58,1.75,0a1.1,1.1,0,0,1,.39.63,2.72,2.72,0,0,0-1.75,1,3.46,3.46,0,0,0-.53.92l-2.7-4.25,1.74-2.21a.84.84,0,0,0,0-1.25.69.69,0,0,0-1,.08L8.76,25.33a.84.84,0,0,0,0,1.26.7.7,0,0,0,1-.11l.4-.51,4.3,6.76a.85.85,0,0,0,.23.26.83.83,0,0,0,1.17-.22A1,1,0,0,0,16,31.59l0,0a3,3,0,0,0,2-1.19,3.61,3.61,0,0,0,.78-2.7,2.3,2.3,0,0,0,.56-.53,3.11,3.11,0,0,0-.08-3.83.64.64,0,0,0-1.08.09Zm-1.45,6.14c-.28.34-.6.41-.81.24a.33.33,0,0,1-.13-.13.82.82,0,0,1,.12-1A1.54,1.54,0,0,1,17,28.13,1.88,1.88,0,0,1,16.67,29.54Z"/><path class="cls-13" d="M23.92,18.26c.62,1.47.71,2.7.14,3.23a.46.46,0,0,1-.71,0,1.79,1.79,0,0,1-.32-.54l-2.78-6.37A1.82,1.82,0,0,0,20,14.1a.78.78,0,0,0-1.18,0,1.24,1.24,0,0,0-.31,1.39,2.11,2.11,0,0,0-1.72.64A2.89,2.89,0,0,0,16,19.34l2.35,5.36a2.76,2.76,0,0,0,.5.77,2.2,2.2,0,0,0,3.21,0A3,3,0,0,0,23,23.36a2.28,2.28,0,0,0,2-.67c1.31-1.23,1.16-3.13.19-5.21a.76.76,0,0,0-.15-.23.65.65,0,0,0-1,0,.82.82,0,0,0-.15,1Zm-2.81,5.59a.7.7,0,0,1-1-.05,1.51,1.51,0,0,1-.26-.42l-2-4.58A1.22,1.22,0,0,1,18,17.38a1,1,0,0,1,1.39,0,1.16,1.16,0,0,1,.13.22l1.73,3.94C21.77,22.8,21.56,23.43,21.11,23.85Z"/><path class="cls-13" d="M83.26,15.25l-3.42,2.93a3.08,3.08,0,0,0-.61.72,1.92,1.92,0,0,0,.9,2.68c1.15.66,2.55.63,4.36-1a1.08,1.08,0,0,0,.18-.2.68.68,0,0,0-.3-.93.79.79,0,0,0-.94.12c-1.15,1-1.9,1.09-2.39.81a.37.37,0,0,1-.15-.54,1.19,1.19,0,0,1,.27-.29l4.28-3.64a2.31,2.31,0,0,0,.57-.68,1.93,1.93,0,0,0-.81-2.73,3.07,3.07,0,0,0-2.3-.31,2.07,2.07,0,0,0-1.14-1.66,3.69,3.69,0,0,0-4.55.6L73.5,14.36c-.72.62-1.35.89-1.69.69-.68-.38.67-1.37.77-1.47a.66.66,0,0,0,.15-.17.67.67,0,0,0-.35-.88.77.77,0,0,0-.9.07c-1.71,1.44-1.88,3-.43,3.78s2.38.46,3.73-.71l3.5-3c.87-.75,1.6-1,2-.72s.45.81-.31,1.45l-4.67,4a1.1,1.1,0,0,0-.31.35.81.81,0,0,0,.36,1.13,1.11,1.11,0,0,0,1.3-.15l4.9-4.15c.87-.74,1.57-1,2-.75S84,14.61,83.26,15.25Z"/><path class="cls-13" d="M89,25.09a3.78,3.78,0,0,1-4.25-.81,1.46,1.46,0,0,1-.27-2.19,1.58,1.58,0,0,1,2.47,0,2.15,2.15,0,0,0,.53,1A1.12,1.12,0,0,0,89.1,23a1,1,0,0,0,0-1.39A1,1,0,0,1,89,20.12,1.23,1.23,0,0,1,90.84,20a.89.89,0,0,1,.22,1,1,1,0,0,0,.07,1.27.85.85,0,0,0,1.19,0c.93-.88.75-2.35-.35-3.38a3.16,3.16,0,0,0-4.41,0A2,2,0,0,0,87,20.1a3.15,3.15,0,0,0-4,.71c-1.12,1.18-.89,3,.71,4.55a5.22,5.22,0,0,0,6.18.92.63.63,0,0,0,.22-.16.64.64,0,0,0-.06-.95A.8.8,0,0,0,89,25.09Z"/><path class="cls-13" d="M98.84,27.7a1.17,1.17,0,0,0-1.36-.33l-2.62.78a2.33,2.33,0,0,1-2.32-.48c-.37-.51-.29-.88,0-1.09a1.34,1.34,0,0,1,.36-.18l2.75-.81a1.72,1.72,0,0,0,.45-.22.82.82,0,0,0,.22-1.18A1.2,1.2,0,0,0,95,23.86L92,24.71a2.64,2.64,0,0,0-.79.38A2.11,2.11,0,0,0,91,28.21a2.69,2.69,0,0,0,1,.8l-2.76.82a1.72,1.72,0,0,0-.45.22.82.82,0,0,0-.22,1.18,1.2,1.2,0,0,0,1.37.33l8.27-2.46a1.73,1.73,0,0,0,.45-.23A.81.81,0,0,0,98.84,27.7Z"/><path class="cls-13" d="M103,36.43l-2.67-5.19c-.33-.59-.81-.68-1.15-.5a.7.7,0,0,0-.31,1l.85,1.65-7.93,1.12a1.08,1.08,0,0,0-.33.1.84.84,0,0,0-.29,1.16,1,1,0,0,0,1,.56l8.41-1.18.89,1.75a.85.85,0,0,0,1.15.49A.68.68,0,0,0,103,36.43Z"/><path class="cls-13" d="M106.41,47.72a1.14,1.14,0,0,0-1.17-.78l-5.86-.36a.47.47,0,0,0-.2,0,1.83,1.83,0,0,1-1.65-1.16.33.33,0,0,1,.14,0l2,.11a2.5,2.5,0,0,0,.83-.08,2.36,2.36,0,0,0,1.66-3.13,4,4,0,0,0-.31-.77l1.46.1a1.57,1.57,0,0,0,.5,0,.81.81,0,0,0,.6-1,1.16,1.16,0,0,0-1.16-.77l-4.11-.27-.18,0-2.08-.13a3.61,3.61,0,0,0-1.1.1,2.5,2.5,0,0,0-1.57,3.3A3.26,3.26,0,0,0,96,45a3.9,3.9,0,0,0,.12.71,3,3,0,0,0,.31.73,1.34,1.34,0,0,0-.3.05.81.81,0,0,0-.61,1,1.2,1.2,0,0,0,1.17.79l8.61.53a1.51,1.51,0,0,0,.49-.05.82.82,0,0,0,.61-1Zm-6.77-4.09-1-.05a1.22,1.22,0,0,0,0-.38,1.06,1.06,0,0,0-1.3-.74c-.34.1-.53.33-.85.8a1.43,1.43,0,0,1-.74-.85.9.9,0,0,1,.6-1.16,1.28,1.28,0,0,1,.45,0l2.51.17a1.5,1.5,0,0,1,1.39,1A.88.88,0,0,1,100,43.6,1.21,1.21,0,0,1,99.64,43.63Z"/><path class="cls-14" d="M38.41,7.56l.11,4.51a2.9,2.9,0,0,0,.17.92,1.91,1.91,0,0,0,2.65,1c1.23-.47,2.09-1.57,1.95-4a.92.92,0,0,0,0-.26.68.68,0,0,0-.91-.36.8.8,0,0,0-.5.81c0,1.5-.36,2.16-.88,2.36a.38.38,0,0,1-.52-.23,1.39,1.39,0,0,1-.06-.39l-.11-5.62a2.32,2.32,0,0,0-.16-.86,1.94,1.94,0,0,0-2.63-1.11,3.09,3.09,0,0,0-1.69,1.59,2.06,2.06,0,0,0-2-.16,3.7,3.7,0,0,0-2.42,3.9l.19,5c0,.95-.15,1.6-.52,1.74-.73.28-.64-1.39-.65-1.52a.72.72,0,0,0-.05-.23.67.67,0,0,0-.9-.29.76.76,0,0,0-.51.74c0,2.24,1.1,3.33,2.66,2.73s1.86-1.55,1.8-3.33l-.12-4.63c0-1.15.25-1.85.71-2s.91.17.94,1.16L35,15.06a1.59,1.59,0,0,0,.07.46.81.81,0,0,0,1.11.43,1.11,1.11,0,0,0,.71-1.1l-.13-6.42c0-1.14.22-1.85.68-2S38.39,6.57,38.41,7.56Z"/><path class="cls-14" d="M50.14,8.73a1.78,1.78,0,0,1-1.38,1.47.35.35,0,0,1,0-.14l1-4.68a2.68,2.68,0,0,0,0-.84,2.7,2.7,0,0,0-3.21-2.06,3.32,3.32,0,0,0-2.9,2.74l-1,4.78a3.71,3.71,0,0,0-.06,1.09,2.49,2.49,0,0,0,3,2,3.28,3.28,0,0,0,2.45-1.47,4.42,4.42,0,0,0,.72,0A3.16,3.16,0,0,0,51.59,9a1.4,1.4,0,0,0,0-.29.64.64,0,0,0-.77-.58.75.75,0,0,0-.68.63Zm-4.6,2.88a.89.89,0,0,1-1.06-.76,1.39,1.39,0,0,1,0-.44L45.56,5.3A1.53,1.53,0,0,1,46.81,4a.92.92,0,0,1,1.08.76,1.81,1.81,0,0,1,0,.39L47.11,8.9a1.54,1.54,0,0,0-.38,0,1.05,1.05,0,0,0-.91,1.18c0,.36.24.57.67.95A1.4,1.4,0,0,1,45.54,11.61Z"/><path class="cls-14" d="M57.61,8.94a3.77,3.77,0,0,1-3.72,2.21c-1.11,0-1.69-.65-1.66-1.47,0-1.06.7-1.64,1.88-1.6a2.18,2.18,0,0,0,1,.38,1.1,1.1,0,0,0,1.15-1.11,1,1,0,0,0-.94-1,1,1,0,0,1-1-1.1A1.22,1.22,0,0,1,55.6,3.9a.88.88,0,0,1,.8.58c.15.6.47.89.89.9a.85.85,0,0,0,.9-.78,2.31,2.31,0,0,0-2.5-2.31,3.17,3.17,0,0,0-3.31,2.92,2,2,0,0,0,.43,1.32,3.14,3.14,0,0,0-2.55,3.19c-.06,1.62,1.34,2.87,3.54,2.94a5.24,5.24,0,0,0,5.25-3.39A1,1,0,0,0,59.11,9a.65.65,0,0,0-.68-.67A.82.82,0,0,0,57.61,8.94Z"/><path class="cls-14" d="M67.23,1.49A.64.64,0,1,0,66.05,1c-.25.53-.65.78-1,.71a.45.45,0,0,1-.4-.52L64.68,1a.63.63,0,0,0-.49-.89.62.62,0,0,0-.69.38,1.34,1.34,0,0,0-.11.36,1.63,1.63,0,0,0,1.37,2,2.34,2.34,0,0,0,2.47-1.4Zm-5.48,8.9a2.19,2.19,0,0,1-2,1.2.62.62,0,0,1-.51-.76,1.44,1.44,0,0,1,.14-.37l3.45-6A1.58,1.58,0,0,0,63,4a.82.82,0,0,0-.66-1,1.2,1.2,0,0,0-1.22.71L57.6,9.85a2.51,2.51,0,0,0-.31.82A2,2,0,0,0,59,13a3.39,3.39,0,0,0,2.39-.63,2.27,2.27,0,0,0,1.81,1.4c1.77.32,3.21-1,4.32-3a.69.69,0,0,0,.09-.25.63.63,0,0,0-.56-.74.87.87,0,0,0-.91.44c-.83,1.43-1.76,2.21-2.5,2.08a.5.5,0,0,1-.45-.59,1.12,1.12,0,0,1,.13-.34l3.58-6.16a1.41,1.41,0,0,0,.16-.46.83.83,0,0,0-.69-1,1.21,1.21,0,0,0-1.24.7Z"/></g></g></svg>